<svg width="61" height="32" viewBox="0 0 61 32" fill="none" xmlns="http://www.w3.org/2000/svg">
<path d="M20.4 6.20001C20.8 6.20001 21.2 6.30001 21.5 6.60001C22.1 7.20001 22.1 8.10001 21.5 8.70001L14.4 15.8L21.5 22.9C22.1 23.5 22.1 24.4 21.5 25C20.9 25.6 20 25.6 19.4 25L11.2 17C10.6 16.4 10.6 15.5 11.2 14.9L19.4 6.70001C19.7 6.40001 20.1 6.20001 20.4 6.20001Z" stroke="#66B02E" stroke-miterlimit="10"/>
<path d="M34.4 6.20001C34.8 6.20001 35.2 6.30001 35.5 6.60001C36.1 7.20001 36.1 8.10001 35.5 8.70001L28.4 15.8L35.5 22.9C36.1 23.5 36.1 24.4 35.5 25C34.9 25.6 34 25.6 33.4 25L25.2 17C24.6 16.4 24.6 15.5 25.2 14.9L33.4 6.70001C33.7 6.40001 34.1 6.20001 34.4 6.20001Z" stroke="white" stroke-miterlimit="10"/>
<path d="M49.4 6.20001C49.8 6.20001 50.2 6.30001 50.5 6.60001C51.1 7.20001 51.1 8.10001 50.5 8.70001L43.4 15.8L50.5 22.9C51.1 23.5 51.1 24.4 50.5 25C49.9 25.6 49 25.6 48.4 25L40.2 17C39.6 16.4 39.6 15.5 40.2 14.9L48.4 6.70001C48.7 6.40001 49.1 6.20001 49.4 6.20001Z" stroke="#66B02E" stroke-miterlimit="10"/>
</svg>
