<svg width="264" height="314" viewBox="0 0 264 314" fill="none" xmlns="http://www.w3.org/2000/svg">
<path d="M258 157.008C258 241.43 200.648 308.015 132 308.015C63.3515 308.015 6 241.43 6 157.008C6 72.5849 63.3515 6 132 6C200.648 6 258 72.5849 258 157.008Z" fill="#22244C" stroke="white" stroke-width="10"/>
<path d="M178.872 126.274C176.138 126.274 172.769 127.376 169.793 128.353C169.191 128.554 168.613 128.741 168.058 128.914C160.814 110.075 144.793 98 126.846 98C115.372 98.0029 104.31 102.275 95.8201 109.984C87.3297 117.692 82.0195 128.283 80.9256 139.69C79.923 139.6 79.0105 139.555 78.1224 139.555C70.3987 139.545 62.8877 142.082 56.7548 146.771C50.622 151.46 46.2102 158.04 44.204 165.489C42.1978 172.938 42.7094 180.84 45.6593 187.969C48.6092 195.098 53.8326 201.056 60.519 204.917C60.3105 203.626 60.2038 202.32 60.1998 201.012C60.1834 198.236 60.653 195.478 61.5875 192.863C57.8797 189.531 55.272 185.153 54.1094 180.309C52.9468 175.465 53.2841 170.382 55.0767 165.733C56.8692 161.085 60.0326 157.089 64.1483 154.275C68.264 151.461 73.1381 149.961 78.1259 149.974C79.2196 149.987 80.3113 150.071 81.394 150.227L90.7126 151.457L91.2226 142.091C91.7256 132.997 95.6979 124.44 102.323 118.181C108.948 111.921 117.722 108.434 126.842 108.436C143.78 108.436 154.628 122.161 158.76 133.914L161.421 141.464L169.179 139.44C170.389 139.125 171.673 138.709 173.037 138.262C174.58 137.76 177.793 136.714 178.858 136.714C185.034 136.709 191.073 138.53 196.215 141.948C201.357 145.365 205.371 150.225 207.752 155.917C210.133 161.609 210.774 167.876 209.594 173.931C208.415 179.986 205.468 185.557 201.124 189.942C202.47 192.516 203.418 195.777 203.418 199.931C203.418 200.531 203.372 201.12 203.334 201.709C210.485 196.548 215.814 189.257 218.554 180.881C221.295 172.506 221.306 163.479 218.587 155.097C215.867 146.715 210.557 139.41 203.419 134.232C196.282 129.054 187.684 126.269 178.862 126.277L178.872 126.274Z" fill="white"/>
<path d="M82.8302 191.335C84.6639 191.321 86.4817 191.675 88.1764 192.374L89.4878 187.329C88.3603 186.744 85.8554 186.078 82.5491 186.078C74.025 186.078 67.1765 191.418 67.1765 201.012C67.1765 209.023 72.1897 215.073 81.9212 215.073C85.3454 215.073 87.9787 214.449 89.1478 213.864L88.1903 208.898C86.4876 209.505 84.6935 209.817 82.8857 209.82C77.2064 209.82 73.8654 206.276 73.8654 200.642C73.848 194.38 77.7788 191.335 82.8302 191.335Z" fill="white"/>
<path d="M99.7189 186.536H93.3284V214.654H110.911V209.314H99.7189V186.536Z" fill="white"/>
<path d="M125.503 186.078C117.177 186.078 111.803 192.378 111.803 200.804C111.803 208.815 116.688 215.111 125.045 215.111C133.274 215.111 138.87 209.522 138.87 200.299C138.87 192.544 134.152 186.078 125.503 186.078ZM125.378 210.066C121.118 210.066 118.53 206.185 118.53 200.68C118.53 195.174 121.038 191.127 125.34 191.127C129.725 191.127 132.15 195.465 132.15 200.513C132.161 205.978 129.68 210.066 125.378 210.066Z" fill="white"/>
<path d="M159.69 202.724C159.69 207.686 157.851 210.025 154.51 210.025C151.253 210.025 149.414 207.561 149.414 202.724V186.539H143.023V202.222C143.023 211.192 147.187 215.115 154.299 215.115C161.654 215.115 166.036 210.984 166.036 202.294V186.539H159.69V202.724Z" fill="white"/>
<path d="M191.701 189.332C188.988 187.288 185.523 186.324 180.173 186.324C177.294 186.303 174.418 186.498 171.569 186.91V214.529C173.965 214.828 176.378 214.968 178.792 214.948C184.308 214.948 188.818 213.78 191.785 211.32C194.498 209.023 196.461 205.312 196.461 199.931C196.461 194.962 194.609 191.501 191.701 189.332ZM180.173 209.983C179.433 210.012 178.692 209.97 177.959 209.858V191.459C178.907 191.27 179.873 191.185 180.839 191.206C186.31 191.206 189.738 194.294 189.696 200.132C189.696 206.854 185.935 210.024 180.173 209.983Z" fill="white"/>
</svg>
