<svg width="264" height="314" viewBox="0 0 264 314" fill="none" xmlns="http://www.w3.org/2000/svg">
<path d="M258 157C258 241.423 200.648 308.008 132 308.008C63.3515 308.008 6 241.423 6 157C6 72.5772 63.3515 5.99231 132 5.99231C200.648 5.99231 258 72.5772 258 157Z" fill="#22244C" stroke="white" stroke-width="10"/>
<path d="M103.599 152.872V206.272H116.199H128.798V207.869V209.465H105.134H81.5346V203.206V196.946H91.0001H100.466V153V108.927H78.4008H56.3999V152.872V196.818H65.8654H75.3309V206.272V215.725H131.868H188.469V206.336V196.882H197.935H207.336V152.936V108.927H185.335H163.334V152.872V196.818H172.736H182.201V203.078V209.338H158.602H135.002V207.741V206.144H147.601H160.201V152.745V99.4733H131.868H103.599V152.872ZM147.601 112.057V115.186H142.868H138.136V112.057V108.927H142.868H147.601V112.057ZM87.8663 121.51V124.64H84.3487H80.8311V121.51V118.38H84.3487H87.8663V121.51ZM194.737 121.51V124.64H191.219H187.702V121.51V118.38H191.219H194.737V121.51ZM147.601 143.291V146.613H131.868H116.135V143.291V139.97H131.868H147.601V143.291ZM87.8663 143.483V146.613H78.4008H68.9992V143.483V140.353H78.4647H87.9302V143.483H87.8663ZM194.737 143.483V146.613H185.271H175.806V143.483V140.353H185.271H194.737V143.483ZM87.8663 152.872V156.002H78.4008H68.9992V152.872V149.743H78.4647H87.9302V152.872H87.8663ZM147.601 152.872V156.002H131.868H116.135V152.872V149.743H131.868H147.601V152.872ZM194.737 152.872V156.002H185.271H175.806V152.872V149.743H185.271H194.737V152.872ZM87.8663 162.326V165.456H78.4008H68.9992V162.326V159.196H78.4647H87.9302V162.326H87.8663ZM147.601 162.326V165.456H131.868H116.135V162.326V159.196H131.868H147.601V162.326ZM194.737 162.326V165.456H185.271H175.806V162.326V159.196H185.271H194.737V162.326ZM87.8663 171.716V174.845H78.4008H68.9992V171.716V168.586H78.4647H87.9302V171.716H87.8663ZM147.601 171.716V174.845H131.868H116.135V171.716V168.586H131.868H147.601V171.716ZM194.737 171.716V174.845H185.271H175.806V171.716V168.586H185.271H194.737V171.716ZM87.8663 181.169V184.299H78.4008H68.9992V181.169V178.039H78.4647H87.9302V181.169H87.8663ZM147.601 181.169V184.299H131.868H116.135V181.169V178.039H131.868H147.601V181.169ZM194.737 181.169V184.299H185.271H175.806V181.169V178.039H185.271H194.737V181.169ZM147.601 190.559V193.688H131.868H116.135V190.559V187.429H131.868H147.601V190.559Z" fill="white"/>
</svg>
