<svg width="264" height="314" viewBox="0 0 264 314" fill="none" xmlns="http://www.w3.org/2000/svg">
<path d="M258 157.008C258 241.43 200.648 308.015 132 308.015C63.3515 308.015 6 241.43 6 157.008C6 72.5849 63.3515 6 132 6C200.648 6 258 72.5849 258 157.008Z" fill="#22244C" stroke="white" stroke-width="10"/>
<path d="M165.81 80C165.81 80 154.16 124.066 168.041 137.93C181.922 151.793 201.752 136.692 196.547 123.323C196.547 123.323 208.445 137.187 198.53 151.793C188.615 166.399 205.718 174.321 206.462 154.516C206.462 154.516 212.411 173.083 203.735 184.966C195.06 196.849 185.888 199.077 185.888 199.077C185.888 199.077 198.034 201.058 203.735 192.146C203.735 192.146 202.496 210.96 182.666 218.882C162.836 226.804 175.477 227.795 175.477 227.795L98.6353 130.75C98.6353 130.75 141.766 129.512 134.577 103.766C134.577 103.766 143.253 112.926 139.287 124.809C139.287 124.809 124.167 134.959 130.364 110.203C134.825 89.6549 165.81 80 165.81 80Z" fill="white" stroke="white" stroke-width="1.6129"/>
<path d="M187.871 217.397L92.9337 122.085H56V227.299L82.0271 233.488C82.0271 233.488 177.708 233.488 179.691 233.488C181.674 233.488 187.871 217.397 187.871 217.397Z" fill="#D1DBD6" stroke="white" stroke-width="1.6129"/>
<path d="M139.039 217.397L92.9337 122.085H56V227.299L82.0271 233.488C82.0271 233.488 177.708 233.488 179.691 233.488C181.674 233.488 139.039 217.397 139.039 217.397Z" fill="#BACCC2" stroke="white" stroke-width="1.6129"/>
<path d="M105.575 126.294C105.575 129.265 102.353 131.988 99.3783 131.988H63.6839C60.9573 131.988 58.4785 129.512 58.4785 126.789V117.629C58.4785 114.659 60.9573 112.183 63.6839 112.183H100.37C103.344 112.183 105.575 114.163 105.575 117.134V126.294Z" fill="white" stroke="white" stroke-width="1.6129"/>
<path d="M105.575 117.134V126.294C105.575 129.265 102.353 131.988 99.3783 131.988H64.9233C62.1967 131.988 58.4785 129.265 58.4785 126.294V117.134" fill="white"/>
<path d="M105.575 117.134V126.294C105.575 129.265 102.353 131.988 99.3783 131.988H64.9233C62.1967 131.988 58.4785 129.265 58.4785 126.294V117.134" stroke="white" stroke-width="1.6129"/>
<path d="M105.575 126.294C105.575 129.265 103.592 131.988 100.618 131.988H63.1882C60.4615 131.988 58.4785 129.265 58.4785 126.294" fill="white"/>
<path d="M105.575 126.294C105.575 129.265 103.592 131.988 100.618 131.988H63.1882C60.4615 131.988 58.4785 129.265 58.4785 126.294" stroke="white" stroke-width="1.6129"/>
<path d="M149.449 137.93C148.21 140.653 144.988 141.643 142.509 140.405L111.276 126.047C108.55 124.809 107.558 121.59 108.798 119.115L112.516 111.193C113.755 108.47 116.978 107.479 119.456 108.717L150.689 123.076C153.416 124.314 154.407 127.532 153.168 130.008L149.449 137.93Z" fill="white" stroke="white" stroke-width="1.6129"/>
<path d="M153.168 130.007L149.449 137.929C148.21 140.653 144.988 141.643 142.509 140.405L111.276 126.046C108.55 124.809 107.558 121.59 108.798 119.115L112.516 111.193" fill="white"/>
<path d="M153.168 130.007L149.449 137.929C148.21 140.653 144.988 141.643 142.509 140.405L111.276 126.046C108.55 124.809 107.558 121.59 108.798 119.115L112.516 111.193" stroke="white" stroke-width="1.6129"/>
<path d="M149.449 137.93C148.21 140.653 144.988 141.643 142.509 140.405L111.276 126.047C108.55 124.809 107.558 121.59 108.798 119.115" fill="white"/>
<path d="M149.449 137.93C148.21 140.653 144.988 141.643 142.509 140.405L111.276 126.047C108.55 124.809 107.558 121.59 108.798 119.115" stroke="white" stroke-width="1.6129"/>
<path d="M127.885 151.298C127.885 154.269 125.158 156.744 122.183 156.744H89.2157C86.2411 156.744 83.2666 154.269 83.2666 151.298V142.386C83.2666 139.415 86.2411 136.939 89.2157 136.939H122.927C125.902 136.939 127.885 139.663 127.885 142.386V151.298Z" fill="white" stroke="white" stroke-width="1.6129"/>
<path d="M127.885 141.891V151.298C127.885 154.269 125.158 156.744 122.183 156.744H89.2157C86.2411 156.744 83.2666 154.269 83.2666 151.298V141.891" fill="white"/>
<path d="M127.885 141.891V151.298C127.885 154.269 125.158 156.744 122.183 156.744H89.2157C86.2411 156.744 83.2666 154.269 83.2666 151.298V141.891" stroke="white" stroke-width="1.6129"/>
<path d="M127.885 151.298C127.885 154.269 125.158 156.744 122.183 156.744H89.2157C86.2411 156.744 83.2666 154.269 83.2666 151.298" fill="white"/>
<path d="M127.885 151.298C127.885 154.269 125.158 156.744 122.183 156.744H89.2157C86.2411 156.744 83.2666 154.269 83.2666 151.298" stroke="white" stroke-width="1.6129"/>
<path d="M75.8299 151.298C75.8299 154.269 73.8469 156.744 70.8724 156.744H62.9403C60.2137 156.744 58.4785 154.269 58.4785 151.298V142.386C58.4785 139.663 60.2137 136.939 62.9403 136.939H70.8724C73.8469 136.939 75.8299 139.663 75.8299 142.386V151.298Z" fill="white" stroke="white" stroke-width="1.6129"/>
<path d="M75.8299 141.891V151.298C75.8299 154.269 73.8469 156.744 70.8724 156.744H62.9403C60.2137 156.744 58.4785 154.269 58.4785 151.298V141.891" fill="white"/>
<path d="M75.8299 141.891V151.298C75.8299 154.269 73.8469 156.744 70.8724 156.744H62.9403C60.2137 156.744 58.4785 154.269 58.4785 151.298V141.891" stroke="white" stroke-width="1.6129"/>
<path d="M75.8299 151.298C75.8299 154.269 73.8469 156.744 70.8724 156.744H62.9403C60.2137 156.744 58.4785 154.269 58.4785 151.298" fill="white"/>
<path d="M75.8299 151.298C75.8299 154.269 73.8469 156.744 70.8724 156.744H62.9403C60.2137 156.744 58.4785 154.269 58.4785 151.298" stroke="white" stroke-width="1.6129"/>
<path d="M75.8299 201.8C75.8299 204.771 73.8469 206.257 70.8724 206.257H62.9403C60.2137 206.257 58.4785 204.771 58.4785 201.8V192.888C58.4785 190.165 60.2137 188.927 62.9403 188.927H70.8724C73.8469 188.927 75.8299 190.165 75.8299 193.136V201.8Z" fill="white" stroke="white" stroke-width="1.6129"/>
<path d="M75.8299 193.879V201.801C75.8299 204.771 73.8469 206.257 70.8724 206.257H62.9403C60.2137 206.257 58.4785 204.771 58.4785 201.801V193.879" fill="white"/>
<path d="M75.8299 193.879V201.801C75.8299 204.771 73.8469 206.257 70.8724 206.257H62.9403C60.2137 206.257 58.4785 204.771 58.4785 201.801V193.879" stroke="white" stroke-width="1.6129"/>
<path d="M75.8299 201.305C75.8299 205.019 73.8469 206.257 70.8724 206.257H62.9403C60.2137 206.257 58.4785 205.019 58.4785 201.305" fill="white"/>
<path d="M75.8299 201.305C75.8299 205.019 73.8469 206.257 70.8724 206.257H62.9403C60.2137 206.257 58.4785 205.019 58.4785 201.305" stroke="white" stroke-width="1.6129"/>
<path d="M100.618 176.302C100.618 179.272 98.1389 181.501 95.4123 181.501H63.6839C60.9573 181.501 58.4785 179.025 58.4785 176.302V167.142C58.4785 164.171 60.9573 161.696 63.6839 161.696H95.1644C98.1389 161.696 100.37 164.171 100.37 166.894V176.302H100.618Z" fill="white" stroke="white" stroke-width="1.6129"/>
<path d="M100.618 166.647V176.302C100.618 179.272 98.1389 181.5 95.4123 181.5H63.6839C60.9573 181.5 58.4785 179.025 58.4785 176.302V166.647" fill="white"/>
<path d="M100.618 166.647V176.302C100.618 179.272 98.1389 181.5 95.4123 181.5H63.6839C60.9573 181.5 58.4785 179.025 58.4785 176.302V166.647" stroke="white" stroke-width="1.6129"/>
<path d="M100.618 176.302C100.618 179.272 98.1389 181.5 95.4123 181.5H63.6839C60.9573 181.5 58.4785 179.025 58.4785 176.302" fill="white"/>
<path d="M100.618 176.302C100.618 179.272 98.1389 181.5 95.4123 181.5H63.6839C60.9573 181.5 58.4785 179.025 58.4785 176.302" stroke="white" stroke-width="1.6129"/>
<path d="M155.151 176.302C155.151 179.272 152.672 181.501 149.945 181.501H115.738C113.011 181.501 110.533 179.025 110.533 176.302V167.142C110.533 164.171 113.011 161.943 115.738 161.943H149.697C152.672 161.943 154.903 164.419 154.903 167.142V176.302H155.151Z" fill="white" stroke="white" stroke-width="1.6129"/>
<path d="M155.151 169.122V176.797C155.151 179.767 152.92 181.5 149.945 181.5H115.738C112.764 181.5 110.533 179.767 110.533 176.797V169.122" fill="white"/>
<path d="M155.151 169.122V176.797C155.151 179.767 152.92 181.5 149.945 181.5H115.738C112.764 181.5 110.533 179.767 110.533 176.797V169.122" stroke="white" stroke-width="1.6129"/>
<path d="M155.151 176.302C155.151 180.015 152.92 181.5 149.945 181.5H115.738C112.764 181.5 110.533 179.768 110.533 176.302" fill="white"/>
<path d="M155.151 176.302C155.151 180.015 152.92 181.5 149.945 181.5H115.738C112.764 181.5 110.533 179.768 110.533 176.302" stroke="white" stroke-width="1.6129"/>
<path d="M103.096 228.29C103.096 231.261 100.618 233.489 97.891 233.489H63.6839C60.9573 233.489 58.4785 231.013 58.4785 228.29V219.13C58.4785 216.159 60.9573 213.684 63.6839 213.684H97.6432C100.618 213.684 102.849 216.159 102.849 218.882V228.29H103.096Z" fill="white" stroke="white" stroke-width="1.6129"/>
<path d="M103.096 218.635V228.29C103.096 231.26 100.618 233.488 97.891 233.488H64.9233C62.1967 233.488 58.4785 230.023 58.4785 227.052V218.635" fill="white"/>
<path d="M103.096 218.635V228.29C103.096 231.26 100.618 233.488 97.891 233.488H64.9233C62.1967 233.488 58.4785 230.023 58.4785 227.052V218.635" stroke="white" stroke-width="1.6129"/>
<path d="M103.096 228.29C103.096 231.26 101.361 233.488 98.3868 233.488H63.6839C60.9573 233.488 58.4785 231.013 58.4785 228.29" fill="white"/>
<path d="M103.096 228.29C103.096 231.26 101.361 233.488 98.3868 233.488H63.6839C60.9573 233.488 58.4785 231.013 58.4785 228.29" stroke="white" stroke-width="1.6129"/>
<path d="M155.151 228.29C155.151 231.26 152.672 233.488 149.945 233.488H115.738C113.011 233.488 110.533 231.013 110.533 228.29V219.13C110.533 216.159 113.011 213.931 115.738 213.931H149.697C152.672 213.931 154.903 216.407 154.903 219.13V228.29H155.151Z" fill="white" stroke="white" stroke-width="1.6129"/>
<path d="M155.151 218.635V227.052C155.151 230.023 152.92 233.488 149.945 233.488H115.738C112.764 233.488 110.533 230.023 110.533 227.052V218.635" fill="white"/>
<path d="M155.151 218.635V227.052C155.151 230.023 152.92 233.488 149.945 233.488H115.738C112.764 233.488 110.533 230.023 110.533 227.052V218.635" stroke="white" stroke-width="1.6129"/>
<path d="M155.151 228.29C155.151 231.26 152.92 233.488 149.945 233.488H115.738C112.764 233.488 110.533 231.013 110.533 228.29" fill="white"/>
<path d="M155.151 228.29C155.151 231.26 152.92 233.488 149.945 233.488H115.738C112.764 233.488 110.533 231.013 110.533 228.29" stroke="white" stroke-width="1.6129"/>
<path d="M207.205 228.29C207.205 231.26 204.726 233.488 201.999 233.488H167.792C165.066 233.488 162.587 231.013 162.587 228.29V219.13C162.587 216.159 165.066 213.931 167.792 213.931H201.752C204.726 213.931 206.957 216.407 206.957 219.13V228.29H207.205Z" fill="white" stroke="white" stroke-width="1.6129"/>
<path d="M207.205 218.635V227.052C207.205 230.023 204.726 233.488 201.999 233.488H168.784C165.809 233.488 162.587 230.023 162.587 227.052V218.635" fill="white"/>
<path d="M207.205 218.635V227.052C207.205 230.023 204.726 233.488 201.999 233.488H168.784C165.809 233.488 162.587 230.023 162.587 227.052V218.635" stroke="white" stroke-width="1.6129"/>
<path d="M207.205 228.29C207.205 231.26 204.726 233.488 201.999 233.488H167.792C165.066 233.488 162.587 231.013 162.587 228.29" fill="white"/>
<path d="M207.205 228.29C207.205 231.26 204.726 233.488 201.999 233.488H167.792C165.066 233.488 162.587 231.013 162.587 228.29" stroke="white" stroke-width="1.6129"/>
<path d="M127.885 201.801C127.885 204.771 126.397 206.257 123.423 206.257H88.472C85.4975 206.257 83.2666 204.771 83.2666 201.801V192.888C83.2666 189.918 85.0017 188.68 87.9763 188.68H123.423C126.397 188.68 127.885 189.918 127.885 192.888V201.801Z" fill="white" stroke="white" stroke-width="1.6129"/>
<path d="M127.885 193.879V201.801C127.885 204.771 126.397 206.257 123.423 206.257H88.472C85.4975 206.257 83.2666 204.771 83.2666 201.801V193.879" fill="white"/>
<path d="M127.885 193.879V201.801C127.885 204.771 126.397 206.257 123.423 206.257H88.472C85.4975 206.257 83.2666 204.771 83.2666 201.801V193.879" stroke="white" stroke-width="1.6129"/>
<path d="M127.885 201.305C127.885 205.019 126.397 206.257 123.423 206.257H88.472C85.4975 206.257 83.2666 204.771 83.2666 201.305" fill="white"/>
<path d="M127.885 201.305C127.885 205.019 126.397 206.257 123.423 206.257H88.472C85.4975 206.257 83.2666 204.771 83.2666 201.305" stroke="white" stroke-width="1.6129"/>
<path d="M182.418 203.534C182.418 206.504 179.939 208.732 177.212 208.732H143.005C140.279 208.732 137.8 206.257 137.8 203.534V194.374C137.8 191.403 140.279 189.175 143.005 189.175H176.964C179.939 189.175 182.17 191.651 182.17 194.374V203.534H182.418Z" fill="white" stroke="white" stroke-width="1.6129"/>
<path d="M182.418 193.879V203.533C182.418 206.504 179.443 206.257 176.469 206.257H142.262C139.287 206.257 137.8 206.257 137.8 203.533V193.879" fill="white"/>
<path d="M182.418 193.879V203.533C182.418 206.504 179.443 206.257 176.469 206.257H142.262C139.287 206.257 137.8 206.257 137.8 203.533V193.879" stroke="white" stroke-width="1.6129"/>
<path d="M182.418 203.534C182.418 206.504 179.939 208.732 177.212 208.732H143.005C140.279 208.732 137.8 206.504 137.8 203.781" fill="white"/>
<path d="M182.418 203.534C182.418 206.504 179.939 208.732 177.212 208.732H143.005C140.279 208.732 137.8 206.504 137.8 203.781" stroke="white" stroke-width="1.6129"/>
<path d="M164.818 156.992C166.461 156.992 167.793 155.662 167.793 154.021C167.793 152.38 166.461 151.05 164.818 151.05C163.175 151.05 161.844 152.38 161.844 154.021C161.844 155.662 163.175 156.992 164.818 156.992Z" fill="white" stroke="white" stroke-width="1.6129"/>
<path d="M176.469 130.008C178.522 130.008 180.187 128.345 180.187 126.294C180.187 124.243 178.522 122.581 176.469 122.581C174.415 122.581 172.75 124.243 172.75 126.294C172.75 128.345 174.415 130.008 176.469 130.008Z" fill="white" stroke="white" stroke-width="1.6129"/>
<path d="M184.401 110.203C184.949 110.203 185.393 109.76 185.393 109.213C185.393 108.666 184.949 108.222 184.401 108.222C183.854 108.222 183.41 108.666 183.41 109.213C183.41 109.76 183.854 110.203 184.401 110.203Z" fill="white" stroke="white" stroke-width="1.6129"/>
<path d="M172.75 89.9026C173.298 89.9026 173.742 89.4593 173.742 88.9124C173.742 88.3655 173.298 87.9221 172.75 87.9221C172.203 87.9221 171.759 88.3655 171.759 88.9124C171.759 89.4593 172.203 89.9026 172.75 89.9026Z" fill="white" stroke="white" stroke-width="1.6129"/>
<path d="M133.834 106.984C136.161 106.984 138.047 105.1 138.047 102.776C138.047 100.451 136.161 98.5671 133.834 98.5671C131.506 98.5671 129.62 100.451 129.62 102.776C129.62 105.1 131.506 106.984 133.834 106.984Z" fill="white" stroke="white" stroke-width="1.6129"/>
<path d="M186.384 177.292C188.574 177.292 190.35 175.518 190.35 173.331C190.35 171.143 188.574 169.37 186.384 169.37C184.193 169.37 182.417 171.143 182.417 173.331C182.417 175.518 184.193 177.292 186.384 177.292Z" fill="white" stroke="white" stroke-width="1.6129"/>
<path d="M168.784 181.253C171.248 181.253 173.246 179.258 173.246 176.797C173.246 174.336 171.248 172.34 168.784 172.34C166.32 172.34 164.322 174.336 164.322 176.797C164.322 179.258 166.32 181.253 168.784 181.253Z" fill="white" stroke="white" stroke-width="1.6129"/>
</svg>
