<svg width="264" height="314" viewBox="0 0 264 314" fill="none" xmlns="http://www.w3.org/2000/svg">
<path d="M258 157.008C258 241.43 200.648 308.015 132 308.015C63.3515 308.015 6 241.43 6 157.008C6 72.5848 63.3515 5.99988 132 5.99988C200.648 5.99988 258 72.5848 258 157.008Z" fill="#22244C" stroke="white" stroke-width="10"/>
<path fill-rule="evenodd" clip-rule="evenodd" d="M100.774 122.058H32V91H100.774V122.058ZM36.2976 115.301H96.4767V97.7777H36.2976V115.301Z" fill="white"/>
<path fill-rule="evenodd" clip-rule="evenodd" d="M36.2976 173.407H32V142.349H36.2976V154.624H43.9859V142.349H48.2834V173.407H43.9859V160.533H36.2976V173.407ZM58.0877 173.82C53.7244 173.82 50.7542 169.502 50.7542 162.393C50.7542 155.491 53.6587 150.718 57.5226 150.718C61.7281 150.718 63.8046 155.14 63.8046 161.753V164.232H54.8284C55.3409 167.662 57.0494 168.551 58.7579 168.551C60.243 168.551 61.3076 168.055 62.635 166.753H62.7927V171.878C61.6624 173.18 60.0459 173.82 58.0877 173.82ZM54.8284 159.707H59.9539C59.8619 157.413 59.2574 155.822 57.5751 155.822C56.3135 155.822 55.2095 156.669 54.8284 159.707ZM75.002 160.389L72.794 173.407H69.0222L64.7246 151.565V151.297H68.8382L71.1775 164.377L73.3855 151.297H76.7368L78.9841 164.377L81.3497 151.297H85.3056V151.565L81.008 173.407H77.2493L75.002 160.389ZM92.2185 173.758C88.8146 173.758 87.4215 171.63 87.4215 166.609V142.205H91.5877V166.154C91.5877 167.704 91.9688 168.241 92.7968 168.241C93.0728 168.241 93.4933 168.096 93.743 167.952H93.8088V173.366C93.4539 173.552 92.8494 173.758 92.2185 173.758ZM102.351 173.82C97.988 173.82 95.0179 169.502 95.0179 162.393C95.0179 155.491 97.9223 150.718 101.773 150.718C105.979 150.718 108.068 155.14 108.068 161.753V164.232H99.092C99.5914 167.662 101.3 168.551 103.008 168.551C104.494 168.551 105.571 168.055 106.899 166.753H107.056V171.878C105.926 173.18 104.31 173.82 102.351 173.82ZM99.092 159.707H104.218C104.112 157.413 103.521 155.822 101.839 155.822C100.577 155.822 99.4731 156.669 99.092 159.707ZM125.259 151.297H128.36V156.566H125.259V165.575C125.259 167.497 125.732 168.406 126.993 168.406C127.348 168.406 127.782 168.344 128.255 168.096H128.36V173.262C127.821 173.572 126.993 173.903 125.797 173.903C122.407 173.903 121.079 171.485 121.079 165.865V156.566H115.743V165.575C115.743 167.497 116.217 168.406 117.478 168.406C117.833 168.406 118.267 168.344 118.74 168.096H118.845V173.262C118.306 173.572 117.478 173.903 116.282 173.903C112.892 173.903 111.564 171.485 111.564 165.865V156.566H109.422V151.297H111.564V145.242H115.743V151.297H121.079V145.242H125.259V151.297ZM149.966 152.743C149.966 159.5 147.088 163.178 142.725 163.178H139.649V173.262H135.352V142.205H142.725C147.088 142.205 149.966 145.883 149.966 152.743ZM142.37 157.475C144.552 157.475 145.603 155.533 145.603 152.743C145.603 149.871 144.552 147.929 142.37 147.929H139.649V157.475H142.37ZM159.297 171.155C158.377 172.89 157.011 173.738 155.565 173.738C152.818 173.738 150.571 171.113 150.571 166.423C150.571 162.104 152.818 159.232 156.038 159.232C157.046 159.232 158.088 159.48 159.166 159.976V159.583C159.166 157.186 158.312 156.153 156.064 156.153C154.645 156.153 153.291 156.793 152.122 157.847H151.964V152.578C153.028 151.586 154.934 150.739 156.787 150.739C161.032 150.739 163.332 153.921 163.332 159.48V173.345H159.297V171.155ZM159.166 166.381V164.48C158.535 163.943 157.707 163.736 156.853 163.736C155.499 163.736 154.671 164.542 154.671 166.319C154.671 168.158 155.499 168.964 156.735 168.964C157.904 168.964 158.785 168.014 159.166 166.381ZM165.382 162.269C165.382 155.161 168.576 150.677 172.742 150.677C174.227 150.677 175.62 151.173 176.672 152.371V157.992H176.501C175.594 156.897 174.516 156.256 173.281 156.256C171.191 156.256 169.614 158.488 169.614 162.269C169.614 166.03 171.191 168.22 173.281 168.22C174.516 168.22 175.594 167.58 176.501 166.485H176.672V172.105C175.62 173.283 174.227 173.8 172.742 173.8C168.576 173.8 165.382 169.378 165.382 162.269ZM183.479 163.282V173.324H179.3V142.267H183.479V159.955L187.685 151.214H192.429V151.462L187.37 161.484L192.429 173.076V173.324H187.646L183.479 163.282ZM201.918 171.155C200.998 172.89 199.645 173.738 198.186 173.738C195.439 173.738 193.192 171.093 193.192 166.423C193.192 162.104 195.439 159.232 198.659 159.232C199.675 159.232 200.718 159.48 201.787 159.976V159.562C201.787 157.186 200.946 156.153 198.698 156.153C197.279 156.153 195.912 156.793 194.742 157.827H194.585V152.557C195.662 151.565 197.555 150.718 199.421 150.718C203.666 150.718 205.966 153.9 205.966 159.48V173.324H201.918V171.155ZM201.787 166.402V164.501C201.156 163.964 200.341 163.757 199.487 163.757C198.133 163.757 197.305 164.563 197.305 166.34C197.305 168.179 198.133 168.985 199.355 168.985C200.525 168.985 201.419 168.034 201.787 166.402ZM213.024 154.748C213.786 152.309 214.89 150.904 216.441 150.904C217.006 150.904 217.571 151.111 217.794 151.317V157.579H217.637C217.163 157.269 216.598 157.083 215.81 157.083C214.509 157.083 213.497 158.26 213.142 160.554V173.262H208.976V151.152H213.024V154.748ZM228.952 171.093C228.072 172.89 226.679 173.882 224.786 173.882C221.185 173.882 218.872 168.716 218.872 162.352C218.872 155.987 221.185 150.78 224.786 150.78C226.613 150.78 227.94 151.669 228.834 153.301V142.329H233V173.366H228.952V171.093ZM228.834 165.885V158.777C228.137 157.186 227.217 156.483 226.179 156.483C224.339 156.483 223.104 158.57 223.104 162.352C223.104 166.133 224.339 168.158 226.179 168.158C227.217 168.158 228.137 167.476 228.834 165.885ZM32.0394 183.532H44.2487V187.314H34.7993V196.798H43.355V200.476H34.7993V210.808H44.2487V214.59H32.0394V183.532ZM54.2895 192.273C57.4174 192.273 59.1522 195.497 59.1522 200.807V214.59H56.5237V200.91C56.5237 198.079 55.6169 196.054 53.6193 196.054C51.9765 196.054 50.5834 197.687 50.1102 200.022V214.59H47.4949V192.728H50.1102V195.91C50.9382 193.864 52.3313 192.273 54.2895 192.273ZM66.1703 192.624H69.745V196.137H66.1703V207.915C66.1703 210.395 66.9851 211.242 68.4702 211.242C68.8907 211.242 69.3244 211.16 69.6399 210.953H69.745V214.487C69.3639 214.734 68.825 214.92 68.1022 214.92C64.8429 214.92 63.5418 212.585 63.5418 208.308V196.137H61.1367V192.624H63.5418V186.797H66.1703V192.624ZM78.2744 215.065C74.1871 215.065 71.4141 210.788 71.4141 203.927C71.4141 197.067 74.0031 192.314 77.7619 192.314C81.5863 192.314 83.584 196.633 83.584 203.039V204.919H74.0294C74.3186 209.341 76.1191 211.49 78.6161 211.49C80.1669 211.49 81.2709 210.932 82.5063 209.486H82.5983V213.123C81.468 214.507 79.9698 215.065 78.2744 215.065ZM74.1214 201.551H81.0475C80.9555 198.307 79.9435 195.827 77.7882 195.827C75.8037 195.827 74.5026 198.162 74.1214 201.551ZM89.3929 196.054C89.9975 193.719 91.3248 192.335 92.8362 192.335C93.4408 192.335 93.9796 192.48 94.1899 192.686V196.757H94.0979C93.7168 196.468 93.0859 196.302 92.4551 196.302C91.0357 196.302 89.8397 197.79 89.3929 200.291V214.548H86.7644V192.686H89.3929C89.3929 192.686 89.3929 196.075 89.3929 196.054ZM103.022 192.294C107.161 192.294 109.383 197.604 109.383 203.659C109.383 209.734 107.161 215.044 103.022 215.044C101.313 215.044 99.8674 213.66 99.1314 212.151V223H96.5161V192.748H99.1314V195.228C99.8674 193.678 101.313 192.294 103.022 192.294ZM102.588 211.325C105.177 211.325 106.688 208.081 106.688 203.659C106.688 199.299 105.177 196.013 102.588 196.013C101.155 196.013 99.828 197.356 99.1314 199.485V207.895C99.828 210.023 101.155 211.325 102.588 211.325ZM115.126 196.054C115.717 193.719 117.045 192.335 118.569 192.335C119.16 192.335 119.699 192.48 119.923 192.686V196.757H119.831C119.45 196.468 118.819 196.302 118.188 196.302C116.769 196.302 115.559 197.79 115.126 200.291V214.548H112.497V192.686H115.126C115.126 192.686 115.126 196.075 115.126 196.054ZM123.734 189.049C122.801 189.049 122.052 187.913 122.052 186.466C122.052 185.041 122.801 183.883 123.734 183.883C124.654 183.883 125.403 185.041 125.403 186.466C125.403 187.913 124.654 189.049 123.734 189.049ZM122.42 192.707H125.048V214.569H122.42V192.707ZM134.419 201.716C136.403 202.708 138.624 204.01 138.624 208.184C138.624 212.647 136.285 214.941 133.275 214.941C131.449 214.941 129.609 214.239 128.57 212.957V209.031H128.689C129.872 210.726 131.606 211.47 133.249 211.47C134.734 211.47 136.062 210.56 136.062 208.68C136.062 206.738 134.958 206.304 132.776 205.146C130.818 204.155 128.636 203.018 128.636 198.885C128.636 194.67 130.844 192.19 133.657 192.19C135.299 192.19 136.758 192.728 137.928 193.967V197.956H137.836C136.692 196.509 135.365 195.662 133.722 195.662C132.079 195.662 131.159 196.798 131.159 198.348C131.159 200.084 132.171 200.58 134.419 201.716ZM147.719 215.065C143.632 215.065 140.859 210.788 140.859 203.948C140.859 197.088 143.448 192.314 147.206 192.314C151.031 192.314 153.028 196.633 153.028 203.039V204.94H143.474C143.763 209.362 145.564 211.49 148.061 211.49C149.611 211.49 150.715 210.953 151.951 209.507H152.043V213.123C150.913 214.528 149.427 215.065 147.719 215.065ZM143.579 201.551H150.492C150.4 198.327 149.388 195.848 147.246 195.848C145.248 195.848 143.947 198.183 143.579 201.551Z" fill="white"/>
</svg>
