<svg width="264" height="314" viewBox="0 0 264 314" fill="none" xmlns="http://www.w3.org/2000/svg">
<path d="M258 157C258 241.423 200.648 308.008 132 308.008C63.3515 308.008 6 241.423 6 157C6 72.5772 63.3515 5.99231 132 5.99231C200.648 5.99231 258 72.5772 258 157Z" fill="#22244C" stroke="white" stroke-width="10"/>
<path d="M45.9239 133.227C45.6361 134.142 45.5401 145.348 45.6361 158.155L45.9239 181.596H49.7618H53.5997V157.011V132.427L49.9537 132.084C47.651 131.855 46.2118 132.198 45.9239 133.227Z" fill="white"/>
<path d="M63.1949 133.227C62.9071 134.028 62.8111 145.348 62.9071 158.155L63.1949 181.596H67.0328H70.8707L71.1585 173.477L71.4464 165.359L76.7234 164.673C79.6019 164.33 83.3438 163.072 85.0708 161.928C93.4182 156.211 93.6101 139.631 85.4546 134.485C81.3289 131.855 63.9625 130.826 63.1949 133.227ZM79.6019 140.774C81.137 141.918 82.8641 146.263 82.8641 148.778C82.8641 150.036 82.0005 152.323 80.8492 154.038C79.314 156.325 78.0667 157.011 75.0923 157.011H71.3504V148.435V139.859H74.9964C76.9153 139.859 79.0262 140.317 79.6019 140.774Z" fill="white"/>
<path d="M114.047 133.227C113.76 134.028 113.664 145.348 113.76 158.155L114.047 181.596H117.885H121.723L122.011 173.477L122.299 165.359L127.576 164.673C130.454 164.33 134.196 163.072 135.923 161.928C144.271 156.211 144.463 139.631 136.307 134.485C132.181 131.855 114.815 130.826 114.047 133.227ZM130.454 140.774C131.99 141.918 133.717 146.263 133.717 148.778C133.717 150.036 132.853 152.323 131.702 154.038C130.167 156.325 128.919 157.011 125.945 157.011H122.203V148.435V139.859H125.849C127.768 139.859 129.879 140.317 130.454 140.774Z" fill="white"/>
<path d="M150.411 133.341C150.219 134.142 150.123 145.348 150.219 158.155L150.507 181.596H160.582C172.383 181.596 176.221 179.767 179.195 172.563C180.826 168.446 180.922 167.646 179.675 163.415C178.716 160.213 177.372 158.155 175.357 157.011L172.383 155.182L175.166 152.209C180.826 146.034 177.66 135.171 169.697 132.998C163.748 131.283 150.987 131.512 150.411 133.341ZM167.394 141.003C168.641 141.803 169.217 143.404 169.217 146.148C169.217 150.837 167.298 152.437 161.637 152.437H157.703V146.148V139.859H161.637C163.748 139.859 166.338 140.431 167.394 141.003ZM170.08 163.415C172.575 167.188 172.575 169.018 170.176 171.877C168.737 173.592 167.01 174.163 162.98 174.163H157.703V167.303V160.442H162.884C167.394 160.442 168.353 160.899 170.08 163.415Z" fill="white"/>
<path d="M185.238 132.656C184.854 132.999 186.965 138.602 189.747 144.891L195.025 156.554L189.364 168.446C186.293 175.078 183.991 180.796 184.183 181.253C184.95 182.74 191.091 182.282 192.434 180.681C193.106 179.767 195.121 175.421 196.944 170.962C198.767 166.502 200.59 163.072 201.069 163.415C201.549 163.758 203.564 168.103 205.675 173.135C209.513 182.168 209.513 182.168 213.35 182.168C215.365 182.168 217.38 181.711 217.668 181.024C217.956 180.453 215.749 174.621 212.775 168.218L207.306 156.44L212.295 145.462C214.982 139.402 217.188 133.799 217.188 133.113C217.188 132.427 215.557 131.855 213.35 131.855C209.513 131.855 209.513 131.855 205.963 140.431C203.948 145.119 202.125 149.007 201.741 149.007C201.357 149.007 199.246 145.119 197.135 140.431C193.298 132.084 193.01 131.855 189.46 131.855C187.445 131.855 185.526 132.198 185.238 132.656Z" fill="white"/>
</svg>
