<svg width="264" height="314" viewBox="0 0 264 314" fill="none" xmlns="http://www.w3.org/2000/svg">
<path d="M258 157C258 241.423 200.648 308.008 132 308.008C63.3515 308.008 6 241.423 6 157C6 72.5772 63.3515 5.99231 132 5.99231C200.648 5.99231 258 72.5772 258 157Z" fill="#22244C" stroke="white" stroke-width="10"/>
<path fill-rule="evenodd" clip-rule="evenodd" d="M30.6098 181.37V185.526C30.6098 190.815 34.0144 195.351 42.3378 195.351C50.2832 195.351 54.4438 191.194 54.4438 183.637C54.4438 179.103 52.9305 176.459 51.0393 174.193C48.7688 172.301 45.7423 171.168 42.3378 168.901C40.4454 167.767 39.3113 166.256 39.6893 163.99C39.6893 162.478 40.8246 161.345 42.7158 161.345C45.7423 161.722 45.7423 164.745 45.7423 167.011H54.0658C54.8218 159.833 50.6613 154.543 42.7158 154.543C35.5276 154.543 30.9879 158.322 30.9879 165.5C30.9879 168.9 32.1231 171.545 33.6363 173.434C35.5288 175.325 37.7981 176.837 40.8246 178.348C43.0938 179.859 45.7423 180.993 45.7423 184.393C45.7423 186.282 44.9863 188.171 42.7158 188.171C39.6893 188.171 38.9333 186.282 38.9333 184.016V181.37H30.6098ZM79.035 194.596V186.66H66.5498V178.348H78.2778V170.413H66.5498V163.235H78.6569V155.299H57.4703V194.596H79.035ZM107.031 168.901V165.879C107.031 157.944 102.491 154.543 94.5455 154.543C86.2232 154.543 82.0603 158.322 82.0603 167.011V182.881C82.0603 190.815 85.4648 195.35 93.7883 195.35C103.246 195.35 107.029 190.814 107.029 184.013V179.102H97.95V182.879C97.95 185.146 97.572 188.169 94.5455 188.169C92.275 188.169 91.519 187.035 91.519 184.768V165.499C91.519 162.854 91.897 161.343 94.9247 161.343C96.8159 161.343 97.9512 163.232 97.9512 166.632V168.899H107.031V168.901ZM110.813 183.637C110.813 191.571 115.354 195.351 122.919 195.351C132.377 195.351 135.404 190.06 135.404 183.637V155.299H126.324V184.393C126.324 186.282 125.568 188.171 122.919 188.171C120.65 188.171 119.893 186.66 119.893 184.771V155.299H110.813V183.637ZM148.646 162.478C153.188 162.478 155.079 162.478 155.079 167.012C155.079 169.657 154.323 171.924 151.674 171.924H148.646V162.478ZM148.646 179.104H151.674C153.566 179.104 154.323 180.615 154.701 183.259C155.079 185.526 154.701 188.926 155.079 192.328C155.079 193.084 155.079 193.84 155.457 194.595H165.292V193.84C164.914 193.462 164.914 193.085 164.536 192.706C164.158 190.06 164.158 183.259 163.78 180.237C163.78 177.592 161.889 175.703 159.241 175.325V174.948C163.023 173.434 164.158 170.411 164.158 166.256C164.158 158.322 160.376 155.299 152.81 155.299H139.567V194.596H148.646V179.104ZM168.318 194.596H177.776V155.299H168.318V194.596ZM180.803 163.235H187.992V194.596H197.071V163.235H204.259V155.299H180.803V163.235ZM215.609 155.299H206.531L215.609 177.97V194.596H225.068V177.97L234.525 155.299H225.068L220.527 168.145L215.609 155.299ZM29.4746 148.12H34.7704V119.405H29.4746V148.12ZM51.0393 125.072V133.007C51.4173 135.652 51.4173 138.675 51.7953 141.32H51.4173C50.2821 136.408 49.1468 133.007 47.6336 129.607L43.4719 119.406H38.1749V148.123H43.4719V142.455C43.4719 140.188 43.0938 137.543 43.0938 134.519C43.0938 131.497 42.7158 128.853 42.7158 126.207C43.8511 130.742 44.9851 134.519 46.4995 137.92L50.6613 148.121H56.3362V119.405H51.0393V125.072ZM65.0365 148.12V134.896H74.1172V130.739H65.0365V123.56H74.8732V119.405H59.7408V148.12H65.0365ZM77.1437 135.273C77.1437 143.209 77.5217 148.876 86.6012 148.876C95.3027 148.876 96.0587 143.209 96.0587 135.273V131.496C95.6807 123.939 94.9247 118.649 86.6012 118.649C77.8997 118.649 77.1437 123.939 77.1437 131.496V135.273ZM82.4395 129.984C82.4395 128.094 82.4395 122.805 86.6012 122.805C90.3837 122.805 90.3837 128.095 90.3837 130.362V137.541C90.3837 140.564 90.3837 144.341 86.6012 144.341C82.8175 144.341 82.4395 140.564 82.4395 138.296V129.984ZM105.517 135.652C107.031 135.652 108.544 135.652 110.057 136.03C111.95 136.407 111.95 139.052 111.95 140.564C111.95 142.452 111.95 146.231 112.328 148.12H118.381V147.364C117.245 146.609 117.245 139.43 117.245 138.296C117.245 135.651 116.11 133.762 113.084 133.006C116.488 132.628 117.623 129.228 117.623 126.204C117.623 120.915 113.84 119.404 109.3 119.404H99.0852V148.12H104.382V135.652H105.517ZM104.382 123.56H108.544C110.435 123.56 111.948 123.938 111.948 127.339C111.948 129.984 110.435 131.118 108.922 131.496H104.382V123.56ZM126.325 139.052C126.325 133.384 125.947 127.717 125.569 121.671H125.947L131.622 148.12H135.028L140.701 121.671C140.323 127.717 140.323 133.384 140.323 139.052V148.12H145.619V119.405H136.919L134.27 132.629C133.892 134.518 133.514 136.408 133.514 139.053H133.136C133.136 137.163 132.758 134.897 132.379 132.629L129.353 119.405H121.029V148.121H126.326L126.325 139.052ZM153.565 148.12L154.7 140.564H161.131L162.644 148.12H168.318L161.887 119.404H154.7L147.51 148.12H153.565ZM157.348 128.473C157.726 126.962 157.726 125.827 157.726 124.317C157.726 123.561 158.104 123.183 158.104 122.428V124.317C158.482 125.828 158.482 126.962 158.86 128.473L160.374 136.407H155.834L157.348 128.473ZM165.669 123.56H171.725V148.12H177.398V123.56H183.451V119.405H165.669V123.56ZM185.721 148.12H191.019V119.405H185.721V148.12ZM194.045 135.273C194.045 143.209 194.423 148.876 203.502 148.876C212.204 148.876 212.582 143.209 212.582 135.273V131.496C212.582 123.939 211.826 118.649 203.502 118.649C194.801 118.649 194.045 123.939 194.045 131.496V135.273ZM199.341 129.984C199.341 128.094 198.963 122.805 203.502 122.805C207.287 122.805 207.287 128.095 207.287 130.362V137.541C207.287 140.564 207.287 144.341 203.502 144.341C199.719 144.341 199.341 140.564 199.341 138.296V129.984ZM228.472 125.072C228.472 127.339 228.85 130.362 228.85 133.007C228.85 135.652 229.228 138.675 229.228 141.32C228.093 136.408 226.959 133.007 225.446 129.607L221.283 119.406H215.609V148.123H220.905V142.455V134.519C220.527 131.497 220.527 128.853 220.149 126.207C221.662 130.742 222.797 134.519 224.309 137.92L228.472 148.121H233.768V119.405H228.472V125.072Z" fill="white"/>
<path fill-rule="evenodd" clip-rule="evenodd" d="M29.4746 180.237V184.392C29.4746 189.681 32.8791 194.595 41.2026 194.595C49.1468 194.595 53.3086 190.437 53.3086 182.88C53.3086 177.969 51.7953 175.325 49.904 173.434C47.6336 171.545 44.6071 170.034 41.2026 167.767C39.3113 166.633 38.1761 165.501 38.5541 163.233C38.5541 161.344 39.6893 160.211 41.5806 160.588C44.6071 160.588 44.6071 163.988 44.6071 166.255H52.9305C53.6866 158.699 49.526 153.409 41.5806 153.409C34.3924 153.409 29.8526 157.188 29.8526 164.745C29.8526 168.145 30.9879 170.411 32.5011 172.3C34.3924 174.569 36.6617 175.703 39.6893 177.591C41.9586 179.103 44.6071 180.237 44.6071 183.637C44.6071 185.526 43.8511 187.414 41.5806 187.414C38.5541 187.414 37.7969 185.526 37.7969 183.259V180.237H29.4746ZM77.8997 193.462V185.526H65.4157V177.215H77.1437V169.279H65.4157V162.101H77.5217V154.544H56.3351V193.462H77.8997ZM105.895 168.145V164.745C105.895 156.809 101.355 153.409 93.4102 153.409C85.0868 153.409 80.9251 157.565 80.9251 165.877V182.124C80.9251 190.058 84.3296 194.594 92.653 194.594C102.112 194.594 105.895 189.68 105.895 182.879V178.345H96.8159V181.745C96.8159 184.012 96.4379 187.412 93.4114 187.412C91.1421 187.412 90.0069 185.901 90.0069 184.012L90.3849 164.742C90.3849 162.097 90.7629 160.587 93.7894 160.587C95.6807 160.587 96.8159 162.098 96.8159 165.498V168.144L105.895 168.145ZM109.679 182.882C109.679 190.816 114.219 194.596 121.785 194.596C131.243 194.596 134.27 189.304 134.27 182.882V154.544H125.19V183.638C125.19 185.149 124.434 187.416 121.785 187.416C119.137 187.416 118.759 185.904 118.759 184.015V154.544H109.679V182.882ZM147.51 161.344C152.052 161.344 153.944 161.722 153.944 166.256C153.944 168.522 153.188 171.167 150.539 171.167H147.51V161.344ZM147.51 177.97H150.539C152.43 178.348 153.188 179.859 153.566 182.125C153.944 184.392 153.566 187.792 153.944 191.192C153.944 191.95 153.944 192.706 154.322 193.461H164.157V193.083C163.779 192.706 163.779 191.95 163.401 191.57C163.023 188.925 163.023 182.503 162.645 179.103C162.267 176.458 160.754 174.947 158.105 174.191C161.888 172.3 163.023 169.277 163.023 165.122C163.023 157.567 159.241 154.543 151.674 154.543H138.432V193.461H147.51V177.97ZM167.183 193.462H176.642V154.544H167.183V193.462ZM179.29 162.101H186.477V193.462H195.937V162.101H203.124V154.544H179.29V162.101ZM214.474 154.544H205.395L214.474 177.215V193.462H223.931V177.215L233.012 154.544H223.931L219.391 167.012L214.474 154.544Z" fill="white"/>
</svg>
