<svg width="264" height="314" viewBox="0 0 264 314" fill="none" xmlns="http://www.w3.org/2000/svg">
<path d="M258 157C258 241.423 200.648 308.008 132 308.008C63.3515 308.008 6 241.423 6 157C6 72.5772 63.3515 5.99231 132 5.99231C200.648 5.99231 258 72.5772 258 157Z" fill="#22244C" stroke="white" stroke-width="10"/>
<path d="M150.955 161.134C162.318 154.697 169.955 142.493 169.955 128.54C169.955 107.815 153.153 91.0349 132.402 91.0349C111.651 91.0349 94.8862 107.815 94.8862 128.503C94.8862 142.493 102.561 154.66 113.886 161.097C90.3411 167.087 71.2293 184.091 62.3999 206.341C79.7234 225.354 104.684 237.298 132.439 237.298C160.194 237.298 185.155 225.354 202.478 206.341C193.649 184.091 174.537 167.087 150.955 161.134Z" fill="white" stroke="#BACCC2" stroke-width="1.5748"/>
<path d="M187.427 116.113H181.541C175.99 94.1976 156.096 77.9008 132.439 77.9008C108.782 77.9008 88.8883 94.1604 83.3373 116.113H77.451C75.4393 116.113 73.8 117.75 73.8 119.759V137.582C73.8 139.591 75.4393 141.228 77.451 141.228H84.902C87.1746 141.228 88.9255 139.182 88.5157 136.986C87.7706 133.117 87.5099 129.061 87.8451 124.894C89.6334 102.83 107.814 85.119 129.98 83.9284C155.761 82.5145 177.22 103.09 177.22 128.54C177.22 131.442 176.922 134.233 176.4 136.986C175.953 139.219 177.741 141.265 179.977 141.265H180.647C179.082 146.102 175.096 155.106 166.378 159.943C159.077 163.999 149.875 164.371 139.033 160.985C138.475 158.492 135.718 155.553 132.886 154.176C129.235 152.353 126.963 153.878 125.659 156.483C124.355 159.088 124.541 161.804 128.155 163.627C131.359 165.227 136.202 165.562 138.214 163.813C143.392 165.413 148.235 166.231 152.743 166.231C158.331 166.231 163.361 165.004 167.794 162.511C178.039 156.818 182.249 146.251 183.739 141.228H187.427C189.439 141.228 191.078 139.591 191.078 137.582V119.759C191.078 117.75 189.439 116.113 187.427 116.113Z" fill="#1E1E1E" stroke="#BACCC2" stroke-width="1.5748"/>
</svg>
