<svg width="264" height="314" viewBox="0 0 264 314" fill="none" xmlns="http://www.w3.org/2000/svg">
<path d="M258 157C258 241.423 200.648 308.008 132 308.008C63.3515 308.008 6 241.423 6 157C6 72.5772 63.3515 5.99231 132 5.99231C200.648 5.99231 258 72.5772 258 157Z" fill="#22244C" stroke="white" stroke-width="10"/>
<path d="M132.308 211.901C140.99 211.901 148.028 204.872 148.028 196.201C148.028 187.53 140.99 180.501 132.308 180.501C123.626 180.501 116.588 187.53 116.588 196.201C116.588 204.872 123.626 211.901 132.308 211.901Z" fill="white" stroke="white" stroke-width="2.18644"/>
<path d="M132.309 154.333C118.8 154.333 106.041 160.896 98.1787 171.889C95.9355 175.025 96.6629 179.383 99.8024 181.623C101.033 182.501 102.452 182.924 103.858 182.924C106.038 182.924 108.185 181.907 109.548 180.001C114.794 172.667 123.303 168.289 132.309 168.289C141.316 168.289 149.824 172.667 155.069 180.001C157.312 183.136 161.675 183.864 164.816 181.623C167.956 179.383 168.683 175.025 166.44 171.889C158.579 160.896 145.819 154.333 132.309 154.333Z" fill="white" stroke="white" stroke-width="2.18644"/>
<path d="M132.309 128.167C113.011 128.167 94.5394 136.396 81.6297 150.744C79.0509 153.611 79.2865 158.022 82.1571 160.598C83.4917 161.796 85.161 162.386 86.8245 162.386C88.7381 162.386 90.6441 161.606 92.0235 160.072C102.287 148.665 116.97 142.123 132.309 142.123C147.648 142.123 162.331 148.665 172.595 160.072C175.175 162.938 179.592 163.174 182.462 160.598C185.332 158.022 185.568 153.61 182.989 150.744C170.078 136.396 151.606 128.167 132.309 128.167Z" fill="white" stroke="white" stroke-width="2.18644"/>
<path d="M199.618 130.218C181.733 112.021 157.829 102 132.309 102C106.791 102 82.8868 112.021 65.0009 130.218C62.2978 132.969 62.3387 137.386 65.0922 140.086C66.4523 141.419 68.2196 142.084 69.9862 142.084C71.7956 142.084 73.6046 141.386 74.9722 139.995C90.2096 124.493 110.572 115.955 132.309 115.955C154.047 115.955 174.41 124.493 189.646 139.994C192.349 142.744 196.773 142.785 199.526 140.086C202.28 137.386 202.32 132.968 199.618 130.218Z" fill="white" stroke="white" stroke-width="2.18644"/>
</svg>
