<svg width="1200" height="800" viewBox="0 0 1200 800" fill="none" xmlns="http://www.w3.org/2000/svg">
<path d="M409.16 378.407C428.22 378.407 440.524 388.298 446.315 404.946H474.784C467.787 373.34 442.696 353.556 409.16 353.556C369.11 353.556 338.952 384.68 338.952 425.453C338.952 466.227 369.11 496.385 409.16 496.385C442.696 496.385 467.063 475.636 474.784 444.996H446.315C440.524 460.678 427.978 471.535 409.16 471.535C382.862 471.535 366.456 452.716 366.456 425.694C366.697 398.432 382.862 378.407 409.16 378.407ZM526.656 368.997H525.449L524.002 355.487H500.116V496.867H526.656V407.358C526.656 388.54 541.131 378.165 560.191 378.165C564.293 378.165 565.258 378.407 565.258 378.407V352.591C565.258 352.591 563.569 352.109 560.191 352.109C551.988 352.109 537.03 355.487 526.656 368.997ZM811.589 352.109C787.945 352.109 773.469 362.242 767.196 368.997H765.99L764.542 355.487H740.657V496.867H767.196V407.841C767.196 388.057 785.05 377.683 807.005 377.683C825.823 377.683 839.334 387.092 839.334 406.635V496.867H865.873V404.946C865.632 365.861 838.128 352.109 811.589 352.109ZM899.891 355.487H926.43V496.867H899.891V355.487ZM643.427 353.556C603.136 353.556 572.496 384.197 572.496 424.971C572.496 465.744 602.895 496.385 643.427 496.385C683.719 496.385 714.359 465.744 714.359 424.971C714.359 384.197 683.719 353.556 643.427 353.556ZM643.427 470.811C617.13 470.811 600.241 451.51 600.241 424.971C600.241 398.432 617.13 378.648 643.427 378.648C669.725 378.648 686.614 398.432 686.614 424.971C686.614 451.51 669.725 470.811 643.427 470.811ZM1012.08 410.977C985.781 405.187 986.988 398.673 986.988 392.883C986.988 385.886 994.708 377.2 1007.5 377.2C1018.11 377.2 1029.45 382.508 1029.45 400.362H1055.02C1055.99 371.41 1036.93 353.798 1007.5 353.798C981.439 353.798 960.449 371.893 960.449 394.089C960.449 422.075 982.645 430.761 1006.77 436.069C1032.35 441.618 1034.52 449.58 1034.52 455.129C1034.52 465.744 1023.66 474.912 1008.46 474.912C997.603 474.912 980.956 468.157 980.956 447.649H955.382C953.693 479.979 977.096 498.556 1008.46 498.556C1038.14 498.556 1061.54 479.496 1061.54 454.164C1061.3 425.212 1035.96 416.044 1012.08 410.977ZM226.523 301.443L138.461 496.867H166.689L183.819 457.541H293.353L310.483 496.867H338.469L250.891 301.443H226.523ZM238.104 334.738H239.31L240.757 338.357L265.608 395.295H211.806L236.656 338.357L238.104 334.738ZM193.711 435.345L201.914 417.009H275.258L283.461 435.345H193.711Z" fill="white"/>
</svg>
