<svg width="1200" height="800" viewBox="0 0 1200 800" fill="none" xmlns="http://www.w3.org/2000/svg">
<path d="M297.296 518.765C324.286 514.006 351.274 509.23 378.258 504.437L379.019 504.275L337.373 454.739C314.469 427.495 295.729 405.099 295.729 404.972C295.729 404.727 338.73 286.309 338.973 285.887C339.053 285.747 368.317 336.27 409.91 408.361C448.851 475.852 480.954 531.498 481.253 532.019L481.795 532.967L349.446 532.949L217.095 532.932L297.296 518.765ZM804.843 506.785C784.696 505.494 772.98 494.023 769.875 472.549C769.048 466.838 769.045 466.688 768.961 429.608L768.879 393.717H786.712L786.782 428.43C786.845 459.719 786.885 463.388 787.183 465.588C788.397 474.521 790.815 480.528 794.928 484.839C798.222 488.289 802.077 490.311 807.413 491.382C809.932 491.888 817.094 491.888 819.388 491.384C824.798 490.194 829.134 487.839 832.96 484.015C837.321 479.658 840.544 473.474 842.105 466.484L842.631 464.126L842.69 429.117L842.747 394.109H860.954V504.177H842.936V495.446C842.936 489.514 842.871 486.735 842.734 486.782C842.622 486.819 842.158 487.527 841.704 488.355C838.599 494.016 833.427 499.195 827.76 502.314C820.965 506.052 814.153 507.382 804.843 506.785ZM1009.33 506.698C1002.22 506.162 994.728 503.717 988.609 499.929C975.709 491.952 968.077 478.8 965.841 460.698C965.068 454.436 964.976 446.021 965.621 440.698C967.062 428.807 971.735 417.132 978.39 408.797C980.096 406.662 983.967 402.791 986.102 401.087C991.856 396.487 998.591 393.272 1005.79 391.69C1009.96 390.777 1017.31 390.348 1021.75 390.76C1032.89 391.793 1043.1 397.038 1050.04 405.294C1057.09 413.685 1060.97 425.407 1061.47 439.84C1061.54 442.103 1061.56 446.068 1061.51 448.653L1061.41 453.354L1022.39 453.403L983.361 453.452V455.194C983.361 460.496 984.649 466.533 986.878 471.67C988.799 476.101 992.106 480.938 994.815 483.279C1000.37 488.08 1007.16 490.953 1014.6 491.644C1017.35 491.9 1024.38 491.63 1027.52 491.146C1036.49 489.768 1045.01 486.253 1051.89 481.093C1052.46 480.663 1053.04 480.242 1053.62 479.832C1053.82 479.707 1053.87 481.292 1053.86 487.961L1053.85 496.245L1052.01 497.386C1044.22 502.201 1035.3 505.293 1025.86 506.45C1023.04 506.795 1012.7 506.952 1009.33 506.698ZM1043.29 436.826C1043.29 427.945 1039.55 418.081 1034.25 413.001C1030.47 409.376 1025.91 407.161 1020.47 406.32C1017.9 405.922 1012.49 406.076 1009.78 406.622C1004.05 407.78 999.317 410.297 995.185 414.379C990.838 418.675 987.578 423.895 985.528 429.84C984.79 431.978 983.928 435.488 983.662 437.442L983.532 438.371H1043.29L1043.29 436.826ZM513.948 503.933C513.993 503.797 527.245 468.986 543.395 426.572L572.76 349.456H591.629L592.413 351.462C594.804 357.597 651.199 504.01 651.199 504.086C651.199 504.135 646.681 504.177 641.162 504.175L631.124 504.174L622.995 482.534L614.867 460.893H549.417L549.131 461.628C548.974 462.032 545.502 471.77 541.413 483.265L533.982 504.17L523.922 504.174C515.961 504.175 513.882 504.126 513.948 503.933ZM608.895 444.379C608.895 444.344 603.425 429.517 596.739 411.428C584.231 377.586 583.534 375.551 582.545 370.117C582.082 367.57 581.847 367.5 581.571 369.824C581.376 371.484 580.525 375.203 579.865 377.265C579.539 378.289 573.908 393.746 567.351 411.618C560.792 429.487 555.428 444.182 555.428 444.274C555.428 444.367 567.457 444.442 582.161 444.442C596.864 444.442 608.895 444.412 608.895 444.379ZM657.269 501.358V498.541L689.876 453.719L722.48 408.896L692.96 408.797L663.439 408.699L663.387 401.209L663.336 393.717H748.731V398.777L716.123 443.844C698.188 468.632 683.514 488.954 683.514 489.004C683.514 489.055 698.011 489.097 715.731 489.097H747.948V504.177H657.269V501.358ZM896.534 504.046C896.463 503.975 896.403 479.121 896.403 448.817V393.717H914.226V405.076C914.226 411.325 914.301 416.436 914.395 416.436C914.487 416.436 914.92 415.413 915.358 414.163C917.362 408.436 920.835 403.084 925.313 398.83C929.344 394.999 933.953 392.707 939.392 391.829C940.92 391.585 942.213 391.536 945.267 391.616C949.105 391.716 951.111 391.997 953.445 392.759L954.178 393V411.499L952.074 410.445C948.355 408.584 944.685 407.846 940.273 408.077C937.402 408.225 935.518 408.595 933.222 409.455C928.563 411.176 924.611 414.404 921.994 418.627C918.118 424.809 915.354 432.755 914.54 440.058C914.393 441.368 914.308 452.042 914.273 473.085L914.221 504.177H905.443C900.614 504.177 896.606 504.118 896.534 504.046ZM138.461 503.659C138.461 503.589 158.084 469.526 182.068 427.963L225.674 352.392L276.492 309.747C304.441 286.292 327.385 267.07 327.477 267.035C327.568 267 327.202 267.925 326.659 269.09C326.118 270.257 301.287 323.517 271.479 387.447L217.28 503.685L177.871 503.736C156.197 503.764 138.461 503.729 138.461 503.659Z" fill="white"/>
</svg>
