<svg width="1200" height="800" viewBox="0 0 1200 800" fill="none" xmlns="http://www.w3.org/2000/svg">
<path d="M737.126 451.95H711.712V348.248L793.456 348.315C793.456 348.315 808.423 347.757 817.939 357.161C817.939 357.161 827.656 365.278 827.656 385.106V451.928H802.31V383.378C802.31 383.378 802.622 376.387 800.239 373.929C800.239 373.929 798.133 371.264 794.126 371.264H737.074L737.126 451.95ZM845.296 451.932V348.29H947.309V371.335L870.598 371.329V388.947H923.898V411.204H870.598V428.881H947.814V451.934L845.296 451.932ZM667.44 451.932V348.29H692.742V451.933L667.44 451.932ZM983.698 451.93V371.332H959.81V348.287H1054.8V371.333H1009V451.93L983.698 451.93ZM583.817 451.93V371.333H559.93V348.287H654.921V371.332H609.119V451.93L583.817 451.93ZM507.488 388.928C513.668 388.881 517.369 388.934 518.858 388.028C518.858 388.028 521.457 386.59 521.487 383.508L521.493 376.732C521.493 373.634 518.865 372.211 518.865 372.211C516.891 371.139 513.547 371.34 505.61 371.333H456.309V388.928H508.619H507.488ZM521.122 451.93V416.562C521.122 413.382 518.464 412.05 518.464 412.05C517.265 411.305 513.675 411.171 508.389 411.171H509.618H456.31V451.931H431.008V348.288H509.997C523.638 348.329 533.058 350.335 539.543 356.635C545.917 363.128 546.766 371.624 546.796 380.463V387.842C546.878 395.355 542.932 402.205 538.226 406.196L539.172 406.666C541.093 407.597 542.143 408.914 542.143 408.914C545.724 413.486 545.68 417.418 545.672 422.258V451.931L521.122 451.93ZM138.461 348.278V451.922H163.764V411.198H240.422V388.934H163.764V371.324H252.887V348.278L138.461 348.278ZM1046.1 433.584V438.342H1050.53C1051.73 438.342 1052.9 438.014 1053.07 436.235C1053.33 433.875 1051.62 433.584 1050.53 433.584H1046.1ZM1044.32 432.02H1050.5C1052.64 432.02 1054.71 432.422 1054.89 435.543C1054.97 437.33 1054.42 437.977 1053.07 438.998C1054.5 439.906 1054.53 440.122 1054.75 442.519C1054.89 444.336 1054.64 444.627 1055.4 445.825H1053.3L1053.01 444.083C1052.72 442.445 1053.51 439.905 1050.65 439.905H1046.1V445.825H1044.33L1044.32 432.02ZM1048.97 428.208C1042.87 428.208 1037.9 433.182 1037.94 439.325C1037.94 445.423 1042.87 450.397 1049.01 450.368C1055.11 450.368 1060.09 445.423 1060.09 439.288C1060.09 433.182 1055.11 428.208 1048.97 428.208ZM1049.01 451.812C1042.07 451.812 1036.48 446.22 1036.48 439.288C1036.45 432.385 1042.07 426.756 1049.01 426.756C1055.91 426.756 1061.54 432.385 1061.54 439.288C1061.54 446.22 1055.91 451.782 1049.01 451.812Z" fill="white"/>
<path d="M396.257 452.918C404.477 450.126 410.873 440.661 412.415 428.755V425.315H370.269V452.918H396.257ZM412.417 374.698V371.585C410.801 359.165 403.928 349.381 395.164 347.08H370.272V374.698H412.417ZM264.064 425.316V428.726C265.59 440.64 271.986 450.126 280.229 452.919H306.082V425.316H264.064ZM281.309 347.084C272.56 349.385 265.665 359.176 264.064 371.612V374.702H306.083V347.084H281.309ZM412.42 386.198H370.274V413.816H412.42V386.198ZM317.562 452.916H358.792V425.313H317.563L317.562 452.916ZM358.793 347.083H317.563V374.701H358.792L358.793 347.083ZM264.062 413.816H306.081V386.198H264.062V413.816Z" fill="white"/>
</svg>
