<svg width="1200" height="800" viewBox="0 0 1200 800" fill="none" xmlns="http://www.w3.org/2000/svg">
<path d="M247.042 365.617H252.26L267.133 350.744L267.862 344.427C240.181 319.991 197.934 322.631 173.498 350.313C166.709 357.996 161.789 367.148 159.098 377.049C160.751 376.371 162.59 376.258 164.316 376.741L194.062 371.831C194.062 371.831 195.572 369.325 196.363 369.479C209.592 354.945 231.861 353.25 247.145 365.617H247.042Z" fill="white"/>
<path d="M288.323 377.049C284.902 364.456 277.887 353.137 268.129 344.489L247.258 365.36C256.07 372.561 261.093 383.418 260.877 394.798V398.506C271.139 398.506 279.459 406.826 279.459 417.087C279.459 427.349 271.139 435.669 260.877 435.669H223.715L220.007 439.428V461.717L223.715 465.425H260.877C287.563 465.63 309.369 444.163 309.575 417.478C309.698 401.269 301.717 386.109 288.323 377.049Z" fill="white"/>
<path d="M186.502 465.189H223.664V435.443H186.502C183.852 435.443 181.243 434.867 178.829 433.768L173.611 435.391L158.636 450.264L157.331 455.482C165.723 461.83 175.974 465.24 186.502 465.189Z" fill="white"/>
<path d="M186.502 368.699C159.806 368.853 138.308 390.618 138.462 417.313C138.555 432.217 145.508 446.248 157.331 455.328L178.88 433.779C169.533 429.557 165.373 418.546 169.595 409.199C173.817 399.852 184.828 395.692 194.175 399.914C198.294 401.773 201.591 405.08 203.46 409.199L225.01 387.649C215.847 375.652 201.591 368.637 186.502 368.699Z" fill="white"/>
<path d="M408.509 444.42C395.577 444.584 383.149 439.479 374.069 430.276C364.691 421.463 359.453 409.117 359.617 396.247C359.463 383.377 364.701 371.041 374.069 362.217C383.108 352.922 395.547 347.714 408.509 347.817C420.856 347.652 432.76 352.449 441.542 361.129L432.257 370.578C425.899 364.426 417.353 361.057 408.509 361.18C399.234 361.067 390.329 364.857 383.981 371.616C377.387 378.159 373.751 387.115 373.905 396.401C373.822 405.584 377.459 414.407 383.981 420.878C397.416 434.272 419.079 434.529 432.832 421.453C436.93 416.975 439.437 411.264 439.981 405.224H408.663V391.871H452.974C453.406 394.562 453.58 397.284 453.498 400.016C454.053 411.407 449.924 422.531 442.066 430.81C433.325 439.901 421.123 444.851 408.509 444.42ZM511.532 435.545C499.175 447.388 479.68 447.388 467.324 435.545C461.335 429.742 458.069 421.699 458.295 413.369C458.069 405.039 461.346 396.997 467.324 391.193C479.69 379.381 499.165 379.381 511.532 391.193C517.51 396.997 520.787 405.039 520.561 413.369C520.776 421.71 517.479 429.752 511.481 435.545H511.532ZM477.081 426.835C483.46 433.655 494.163 434.005 500.983 427.616C501.25 427.359 501.517 427.102 501.764 426.835C505.246 423.23 507.126 418.382 506.982 413.369C507.136 408.347 505.256 403.468 501.764 399.852C495.2 393.011 484.333 392.775 477.482 399.339C477.307 399.503 477.133 399.677 476.969 399.852C473.476 403.468 471.597 408.347 471.751 413.369C471.617 418.382 473.517 423.24 477.02 426.835H477.081ZM579.478 435.545C567.121 447.388 547.626 447.388 535.269 435.545C529.281 429.742 526.015 421.699 526.241 413.369C526.015 405.039 529.291 396.997 535.269 391.193C547.626 379.35 567.121 379.35 579.478 391.193C585.456 396.997 588.732 405.039 588.506 413.369C588.743 421.699 585.466 429.742 579.478 435.545ZM545.038 426.835C551.416 433.655 562.119 434.005 568.939 427.616C569.206 427.359 569.473 427.102 569.72 426.835C573.202 423.23 575.082 418.382 574.938 413.369C575.092 408.347 573.212 403.468 569.72 399.852C563.156 393.011 552.289 392.775 545.448 399.339C545.274 399.503 545.099 399.677 544.935 399.852C541.443 403.468 539.563 408.347 539.717 413.369C539.583 418.382 541.484 423.24 544.986 426.835H545.038ZM624.148 472.286C617.893 472.482 611.761 470.53 606.769 466.75C602.339 463.419 598.85 458.995 596.641 453.911L608.536 448.95C609.83 451.99 611.853 454.661 614.432 456.725C617.184 458.944 620.646 460.115 624.189 460.012C628.729 460.289 633.167 458.574 636.351 455.318C639.494 451.528 641.045 446.659 640.685 441.749V437.261H640.213C636.176 442.047 630.126 444.656 623.881 444.307C615.962 444.328 608.392 441.041 603.01 435.227C597.176 429.465 593.95 421.566 594.084 413.359C593.94 405.111 597.165 397.161 603.01 391.337C608.382 385.503 615.952 382.185 623.881 382.206C627.199 382.195 630.486 382.935 633.485 384.342C636.084 385.472 638.395 387.167 640.275 389.303H640.747V384.342H653.689V439.921C654.377 448.806 651.378 457.588 645.39 464.193C639.689 469.647 632.037 472.564 624.148 472.286ZM625.093 432.207C629.603 432.31 633.927 430.389 636.885 426.989C640.1 423.302 641.805 418.526 641.63 413.626C641.826 408.644 640.131 403.786 636.885 400.006C633.927 396.596 629.603 394.686 625.093 394.788C620.461 394.696 616.013 396.596 612.881 400.006C609.429 403.653 607.55 408.511 607.663 413.523C607.56 418.495 609.429 423.302 612.881 426.887C615.993 430.328 620.44 432.269 625.093 432.207ZM676.707 351.319V442.54H663.087V351.319H676.707ZM714.075 444.42C705.827 444.636 697.867 441.4 692.104 435.494C686.26 429.639 683.066 421.638 683.281 413.369C682.973 405.08 686.044 397.017 691.786 391.029C697.209 385.318 704.79 382.154 712.658 382.308C716.242 382.267 719.786 382.966 723.093 384.342C726.072 385.544 728.784 387.321 731.074 389.56C733.046 391.46 734.793 393.576 736.292 395.877C737.504 397.818 738.531 399.862 739.374 401.978L740.781 405.532L699.038 422.706C701.626 428.643 707.594 432.382 714.065 432.104C720.32 432.125 726.123 428.848 729.359 423.497L739.795 430.543C737.132 434.358 733.722 437.59 729.77 440.044C725.086 443.003 719.622 444.523 714.075 444.42ZM696.644 412.424L724.408 400.889C723.556 398.856 722.025 397.181 720.074 396.144C717.896 394.912 715.431 394.285 712.925 394.316C708.683 394.429 704.646 396.206 701.708 399.277C698.144 402.687 696.285 407.504 696.644 412.424Z" fill="white"/>
<path d="M812.137 444.42C788.389 444.831 768.812 425.911 768.401 402.163C768.391 401.588 768.391 401.003 768.411 400.427C767.856 376.68 786.663 356.989 810.401 356.435C810.976 356.424 811.562 356.424 812.137 356.424C824.011 356.055 835.412 361.129 843.085 370.198L835.566 377.501C829.927 370.404 821.237 366.429 812.188 366.799C803.509 366.603 795.117 369.962 788.964 376.084C782.565 382.524 779.145 391.337 779.515 400.407C779.134 409.477 782.565 418.289 788.964 424.73C795.117 430.862 803.509 434.21 812.188 434.015C822.295 434.128 831.899 429.629 838.278 421.802L845.796 429.321C841.862 434.025 836.922 437.785 831.344 440.332C825.325 443.126 818.762 444.523 812.137 444.42Z" fill="white"/>
<path d="M865.99 442.54H855.185V358.253H865.99V442.54Z" fill="white"/>
<path d="M883.636 391.81C895.418 380.11 914.44 380.11 926.222 391.81C931.809 397.716 934.819 405.604 934.572 413.729C934.819 421.854 931.809 429.742 926.222 435.648C914.44 447.347 895.418 447.347 883.636 435.648C878.049 429.742 875.039 421.854 875.286 413.729C875.039 405.604 878.038 397.716 883.636 391.81ZM891.669 428.869C898.581 436.172 910.106 436.49 917.419 429.578C917.666 429.352 917.902 429.105 918.128 428.869C921.939 424.781 923.952 419.327 923.716 413.739C923.962 408.151 921.949 402.697 918.128 398.609C911.215 391.306 899.691 390.988 892.377 397.901C892.131 398.127 891.895 398.373 891.669 398.609C887.858 402.697 885.845 408.151 886.081 413.739C885.865 419.317 887.899 424.75 891.72 428.818L891.669 428.869Z" fill="white"/>
<path d="M994.425 442.54H983.989V434.559H983.681C981.821 437.59 979.192 440.075 976.059 441.76C972.813 443.639 969.116 444.636 965.356 444.625C959.173 445.047 953.143 442.623 948.973 438.052C945.019 433.05 943.036 426.774 943.386 420.416V384.928H954.191V418.433C954.191 429.187 958.937 434.559 968.438 434.559C972.721 434.693 976.799 432.752 979.397 429.342C982.201 425.798 983.691 421.391 983.629 416.872V384.928H994.435V442.54H994.425Z" fill="white"/>
<path d="M1031.11 444.42C1023.7 444.441 1016.64 441.226 1011.8 435.597C1006.39 429.619 1003.49 421.792 1003.71 413.729C1003.49 405.666 1006.39 397.839 1011.8 391.861C1016.64 386.242 1023.7 383.017 1031.11 383.038C1035.22 382.976 1039.28 383.942 1042.91 385.852C1046.1 387.454 1048.8 389.889 1050.73 392.898H1051.21L1050.73 384.917V358.253H1061.54V442.54H1051.1V434.559H1050.63C1048.7 437.569 1046 440.003 1042.8 441.606C1039.21 443.496 1035.19 444.471 1031.11 444.42ZM1032.89 434.559C1037.83 434.631 1042.57 432.577 1045.88 428.92C1049.55 424.74 1051.43 419.286 1051.1 413.729C1051.43 408.182 1049.55 402.718 1045.88 398.537C1039.33 391.327 1028.18 390.803 1020.97 397.366C1020.56 397.736 1020.16 398.137 1019.8 398.537C1016.12 402.687 1014.24 408.131 1014.58 413.667C1014.24 419.204 1016.12 424.647 1019.8 428.797C1023.12 432.536 1027.9 434.631 1032.89 434.559Z" fill="white"/>
</svg>
