<svg width="32" height="32" viewBox="0 0 32 32" fill="none" xmlns="http://www.w3.org/2000/svg">
<g clip-path="url(#clip0_28_4843)">
<path d="M14.417 16.0162C14.417 17.2242 13.677 17.8022 12.75 17.8022H12.187V17.0682H12.708C13.271 17.0682 13.64 16.7662 13.64 16.0052C13.64 15.2552 13.291 14.8852 12.692 14.8852C12.119 14.8852 11.713 15.2342 11.713 15.9892V19.0362H10.932V14.2552H11.703V14.6662H11.812C12.057 14.3382 12.442 14.1502 12.848 14.1612C13.702 14.1612 14.416 14.7862 14.416 16.0152L14.417 16.0162ZM9.344 15.6982L8.834 15.6462C8.428 15.6102 8.214 15.5002 8.214 15.2612C8.214 14.9852 8.49 14.8232 8.881 14.8232C9.282 14.8232 9.542 15.0162 9.563 15.2812H10.303C10.272 14.5882 9.74 14.1612 8.886 14.1612C8.027 14.1612 7.443 14.6192 7.443 15.2862C7.443 15.8492 7.797 16.2082 8.599 16.2862L9.12 16.3382C9.438 16.3692 9.651 16.4322 9.651 16.7392C9.651 17.0102 9.453 17.2082 8.927 17.2082C8.448 17.2082 8.208 16.9892 8.13 16.6982H7.328C7.401 17.3652 7.969 17.8802 8.927 17.8802C9.838 17.8802 10.422 17.4062 10.422 16.6982C10.417 16.0832 10.011 15.7602 9.344 15.6982ZM17.401 16.7032C17.286 16.9792 16.995 17.1872 16.578 17.1872C16.015 17.1872 15.599 16.8172 15.599 16.0262C15.599 15.2712 15.984 14.8542 16.589 14.8542C17.131 14.8542 17.433 15.1722 17.464 15.6612H16.079V16.2182H18.23V15.8532C18.23 14.8322 17.548 14.1712 16.589 14.1712C15.693 14.1712 14.829 14.7802 14.829 16.0252C14.829 17.2752 15.694 17.8842 16.584 17.8842C17.402 17.8842 17.995 17.3792 18.178 16.6962L17.401 16.7032ZM5.234 14.1612C4.39 14.1612 3.76 14.6042 3.682 15.2812H4.51C4.567 15.0362 4.791 14.8492 5.229 14.8492C5.786 14.8492 5.969 15.1412 5.969 15.5002V16.7142C5.651 17.0732 5.287 17.2402 4.917 17.2402C4.537 17.2402 4.271 17.0522 4.271 16.7302C4.271 16.4122 4.479 16.2142 4.87 16.2142H5.485V15.6622H4.85C3.965 15.6622 3.47 16.1002 3.47 16.7822C3.47 17.4122 3.944 17.8862 4.73 17.8862C5.173 17.8862 5.558 17.7092 5.85 17.5012H5.959V17.7982H6.73V15.4332C6.751 14.5582 6.157 14.1622 5.235 14.1622L5.234 14.1612ZM0 17.7972H0.771V12.9482H0V17.7972ZM3.24 14.2552H2.297L1.177 15.7342V16.1922L2.328 17.7962H3.286L1.932 15.9632L3.24 14.2552ZM31.146 14.2552L30.516 15.6562C30.36 15.9892 30.214 16.3232 30.172 16.5472H30.063C30.016 16.3232 29.865 16.0052 29.709 15.6672L29.079 14.2562H28.22L29.71 17.4382L28.976 19.0422H29.799L32.002 14.2562L31.146 14.2552ZM28.052 14.2552H27.109L25.984 15.7292V16.1872L27.14 17.7912H28.098L26.744 15.9582L28.052 14.2552ZM23.214 15.6982L22.704 15.6462C22.303 15.6102 22.089 15.5002 22.089 15.2612C22.089 14.9852 22.365 14.8232 22.75 14.8232C23.156 14.8232 23.411 15.0162 23.432 15.2872H24.172C24.141 14.5892 23.609 14.1622 22.755 14.1622C21.896 14.1622 21.317 14.6202 21.317 15.2872C21.317 15.8502 21.671 16.2092 22.468 16.2872L22.994 16.3392C23.307 16.3702 23.52 16.4332 23.52 16.7402C23.52 17.0112 23.322 17.2092 22.801 17.2092C22.322 17.2092 22.082 16.9902 21.999 16.6992H21.197C21.275 17.3662 21.838 17.8812 22.801 17.8812C23.707 17.8812 24.291 17.4072 24.291 16.6992C24.291 16.0842 23.88 15.7612 23.213 15.6992L23.214 15.6982ZM24.813 17.7972H25.584V12.9482H24.813V17.7972ZM19.719 14.6672H19.61V14.2562H18.839V17.8032H19.61V15.9492C19.61 15.3142 19.902 14.9492 20.48 14.9492H20.964V14.1632H20.683C20.147 14.1632 19.923 14.3712 19.719 14.6682V14.6672Z" fill="white"/>
</g>
<defs>
<clipPath id="clip0_28_4843">
<rect width="32" height="32" fill="white"/>
</clipPath>
</defs>
</svg>
