<svg width="652" height="652" viewBox="0 0 652 652" fill="none" xmlns="http://www.w3.org/2000/svg">
<path d="M127.2 265.7L123.8 265.6C123.7 265.6 123.6 265.6 123.4 265.6H55.4C32.1 265.6 20.5 275 20.5 293.8V345.5C20.5 364.2 32.1 373.5 55.4 373.5H123.5C146.7 373.5 158.3 364.2 158.3 345.5V293.8C158.3 276 148 266.6 127.2 265.7ZM119.8 347.2H63.3V291.2H119.8V347.2Z" fill="white"/>
<path d="M468.8 373.1H428.3V344.8H371.6V373.1H331.1V290.1C331.1 283 333.8 277.4 339.1 273.2C344.3 269.1 351.8 267.1 361.5 267.1H438.6C448.3 267.1 455.8 269.1 461 273.2C466.2 277.3 468.8 282.9 468.8 290.1V373.1ZM428.3 325.3V294.6H371.6V325.3H428.3Z" fill="white"/>
<path d="M614 272.3C609.9 269.1 603.6 267.3 595.2 267H595.3H593.7C593.4 267 593.1 267 592.7 267H520.6H518.2C508.5 267 501 269 495.8 273.1C490.6 277.2 487.9 282.7 487.8 289.5V289.8C487.8 289.9 487.8 290 487.8 290.1V373.1H528.3V345.4H593.8C611.6 345.4 620.5 338.3 620.5 324V290C620.6 281.7 618.4 275.9 614 272.3ZM579.3 322.1H527.8V294.6H579.3V322.1Z" fill="white"/>
<path d="M280.2 267H274.2V328.7C273.9 329.3 273.4 329.8 272.1 329.6C272.1 329.6 271.3 329.4 270.7 328.8C263.9 318.2 237.5 282 229.1 270.5L229 270.4C228.9 270.3 228.7 270.1 228.6 270C228.5 269.9 228.5 269.8 228.4 269.8C226.3 267.9 223.4 266.9 219.7 266.9H187C182.9 266.9 179.7 268.1 177.5 270.4C175.3 272.7 174.2 275.9 174.1 279.7H174V372.9H212.3C212.3 372.9 212.1 323.6 212 309.1C212.2 308.1 212.9 306.7 215.8 307.1C215.8 307.1 216.9 307.2 217.4 308C224.8 319.8 273.2 372.8 273.2 372.8H312.9V267H280.2Z" fill="white"/>
<path d="M85.7 332.8C85.7 332.8 128.6 357.4 137.5 377H170.9C168.1 370.4 152.2 341.2 85.7 332.8Z" fill="white" stroke="white" stroke-width="2.676"/>
</svg>
