<svg width="1200" height="800" viewBox="0 0 1200 800" fill="none" xmlns="http://www.w3.org/2000/svg">
<path d="M145.777 449.179H215.321C227.441 449.179 234.078 448.035 237.969 445.519C242.774 442.538 245.52 437.521 245.52 431.572C245.52 424.478 241.855 418.298 235.685 415.321C232.486 413.493 226.528 412.575 219.208 412.575H191.068C172.772 412.575 160.874 409.372 152.871 402.509C143.718 394.496 138.461 382.145 138.461 368.881C138.461 349.436 149.211 332.507 164.995 327.015C171.858 324.495 179.861 323.816 197.709 323.816H273.198V351.038H205.025C190.611 351.264 189.466 351.264 184.666 352.409C178.265 354.005 174.374 359.955 174.374 367.958C174.374 374.83 177.572 380.318 183.069 382.833C187.643 384.896 191.303 385.349 202.288 385.349H226.763C249.185 385.349 261.304 388.782 270.231 397.935C277.094 404.793 281.672 418.298 281.672 431.572C281.672 447.813 274.121 462.905 262.228 470.23C254.681 475.03 245.077 476.401 222.42 476.401H145.777V449.179ZM368.824 322.662C347.321 322.662 328.56 327.929 316.666 337.538C301.569 349.436 293.566 371.632 293.566 400.916C293.566 421.27 297.9 437.982 306.831 450.559C318.724 467.724 341.838 477.338 371.118 477.338C391.708 477.338 409.098 472.293 420.54 463.145C435.637 451.03 444.115 429.047 444.115 402.278L444.046 397.912L443.861 393.615L443.557 389.433L443.146 385.33L442.611 381.329L441.946 377.452L441.184 373.699L440.303 370.067L439.823 368.295L439.311 366.564L438.775 364.852L438.217 363.204L437.64 361.561L437.021 359.969L436.375 358.427L435.701 356.895L435.023 355.436L434.308 353.996L433.564 352.598L432.798 351.255L431.995 349.939L431.188 348.661L430.343 347.442L429.475 346.27C417.798 331.136 396.051 322.662 368.824 322.662ZM369.046 348.504C396.272 348.504 408.397 364.533 408.397 400.215C408.397 435.449 396.041 451.69 369.046 451.69C341.598 451.69 329.238 435.439 329.238 399.758L329.257 398.253L329.275 396.767L329.298 395.309L329.358 393.869L329.423 392.461L329.488 391.062L329.571 389.701L329.672 388.358L329.792 387.033L329.917 385.755L330.06 384.504L330.221 383.267L330.388 382.049L330.572 380.849L330.78 379.695L330.988 378.541L331.218 377.433L331.468 376.362L331.717 375.292L331.989 374.258L332.275 373.242L332.561 372.25L332.866 371.304L333.198 370.376L333.549 369.472L333.9 368.585L334.274 367.741L334.666 366.896L335.054 366.093L335.464 365.327L335.898 364.579L336.332 363.864C342.512 354.015 354.18 348.504 369.046 348.504ZM461.492 323.816V476.41H493.957V423.084H546.138C563.525 423.084 571.735 420.813 580.661 413.262C591.184 404.345 597.595 389.475 597.595 373.455C597.595 359.959 592.795 347.369 583.874 337.759C573.812 326.549 564.42 323.816 537.655 323.816H461.492ZM493.957 351.042H538.795C544.057 351.042 548.178 351.49 550.694 352.409C557.792 354.924 561.914 362.244 561.914 372.305C561.914 380.775 559.389 388.099 555.277 391.533L554.949 391.819L554.617 392.101L554.266 392.373L553.92 392.645L553.546 392.89L553.177 393.121L552.784 393.347L552.374 393.559L551.958 393.758L551.525 393.965L551.091 394.136L550.638 394.316L550.158 394.482L549.683 394.616L549.189 394.764L548.672 394.907L548.141 395.022L547.606 395.119L547.048 395.221L546.471 395.322L545.875 395.405L545.275 395.489L544.634 395.553L543.992 395.636L543.332 395.682L542.631 395.724L541.929 395.77L541.209 395.812L540.461 395.825L539.695 395.849H538.911L538.103 395.867H493.948V351.042H493.957ZM703.971 413.489H645.18V476.392H612.692V323.816H645.18V386.267H703.971V323.816H736.458V476.392H703.971V413.489ZM831.175 322.662C809.677 322.662 790.915 327.929 779.017 337.538C763.92 349.436 755.894 371.632 755.894 400.916C755.894 421.27 760.246 437.982 769.181 450.559C781.061 467.724 804.175 477.338 833.464 477.338C854.063 477.338 871.435 472.293 882.863 463.145C897.96 451.03 906.434 429.047 906.434 402.278L906.369 397.912L906.189 393.615L905.884 389.433L905.469 385.33L904.929 381.329L904.269 377.452L903.503 373.699L902.635 370.067L902.141 368.295L901.648 366.564L901.117 364.852L900.54 363.204L899.963 361.561L899.34 359.969L898.698 358.427L898.038 356.895L897.337 355.436L896.617 353.996L895.878 352.598L895.112 351.255L894.309 349.939L893.506 348.661L892.648 347.442L891.78 346.27C880.121 331.136 858.406 322.662 831.175 322.662ZM831.411 348.504C858.623 348.504 870.757 364.533 870.757 400.215C870.757 435.449 858.397 451.69 831.411 451.69C803.963 451.69 791.603 435.439 791.603 399.758V398.253L791.621 396.767L791.668 395.309L791.704 393.869L791.769 392.461L791.861 391.062L791.944 389.701L792.041 388.358L792.138 387.033L792.263 385.755L792.425 384.504L792.568 383.267L792.729 382.049L792.918 380.849L793.117 379.695L793.334 378.541L793.56 377.433L793.804 376.362L794.058 375.292L794.331 374.258L794.617 373.242L794.903 372.25L795.226 371.304L795.549 370.376L795.881 369.472L796.232 368.585L796.601 367.741L796.998 366.896L797.386 366.093L797.801 365.327L798.235 364.579L798.697 363.864C804.863 354.015 816.535 348.504 831.411 348.504ZM925.657 449.179H995.201C1007.32 449.179 1013.95 448.035 1017.84 445.519C1022.64 442.538 1025.39 437.521 1025.39 431.572C1025.39 424.478 1021.73 418.298 1015.56 415.321C1012.35 413.493 1006.41 412.575 999.088 412.575H970.943C952.643 412.575 940.744 409.372 932.741 402.509C923.594 394.496 918.328 382.145 918.328 368.881C918.328 349.436 929.072 332.507 944.866 327.015C951.724 324.495 959.741 323.816 977.58 323.816H1053.07V351.038H984.9C970.486 351.264 969.341 351.264 964.546 352.409C958.135 354.005 954.245 359.955 954.245 367.958C954.245 374.83 957.452 380.318 962.954 382.833C967.514 384.896 971.174 385.349 982.163 385.349H1006.64C1029.06 385.349 1041.18 388.782 1050.12 397.935C1056.97 404.793 1061.54 418.293 1061.54 431.567C1061.54 447.809 1053.99 462.901 1042.09 470.225C1034.55 475.025 1024.94 476.396 1002.29 476.396H925.652V449.179H925.657Z" fill="white"/>
</svg>
