<svg width="24" height="24" viewBox="0 0 24 24" fill="none" xmlns="http://www.w3.org/2000/svg">
<g clip-path="url(#clip0_28_4858)">
<path d="M6.63017 9.8418C5.52617 9.8418 4.63017 10.7868 4.63017 11.9428V12.0508C4.63017 13.3728 5.47617 14.0888 6.60417 14.1508C6.65517 14.1578 6.71217 14.1578 6.76417 14.1578C7.19917 14.1578 7.55817 14.0428 7.95917 13.7968C7.99917 13.7738 8.16017 13.6648 8.32017 13.4588C8.45217 13.2928 8.45817 13.0478 8.32017 12.9158C8.12017 12.7268 7.90817 12.8298 7.72517 12.9898C7.43317 13.2358 7.20917 13.4318 6.62517 13.4318C6.07517 13.4318 5.56117 13.1158 5.43517 12.4918C5.43517 12.4688 5.44517 12.4468 5.46917 12.4468H8.16017C8.22473 12.4465 8.28855 12.433 8.3477 12.4072C8.40686 12.3813 8.46009 12.3436 8.50412 12.2964C8.54815 12.2492 8.58205 12.1934 8.60372 12.1326C8.6254 12.0718 8.6344 12.0072 8.63017 11.9428C8.63017 10.7868 7.73617 9.8428 6.63117 9.8428L6.63017 9.8418ZM11.0962 9.8418C9.99617 9.8418 9.10017 10.7868 9.10017 11.9428V12.0508C9.10017 13.3728 9.94617 14.0888 11.0742 14.1508C11.1262 14.1578 11.1842 14.1578 11.2342 14.1578C11.6692 14.1578 12.0292 14.0428 12.4302 13.7968C12.4702 13.7738 12.6302 13.6648 12.7912 13.4588C12.9232 13.2928 12.9282 13.0478 12.7912 12.9158C12.5912 12.7268 12.3782 12.8298 12.1952 12.9898C11.9032 13.2358 11.6802 13.4318 11.0952 13.4318C10.5462 13.4318 10.0322 13.1158 9.90617 12.4918C9.90017 12.4688 9.91617 12.4468 9.93417 12.4468H12.6252C12.6897 12.4465 12.7536 12.433 12.8127 12.4072C12.8719 12.3813 12.9251 12.3436 12.9691 12.2964C13.0131 12.2492 13.047 12.1934 13.0687 12.1326C13.0904 12.0718 13.0994 12.0072 13.0952 11.9428C13.0882 10.7868 12.1952 9.8428 11.0962 9.8428V9.8418ZM4.20617 9.8818C4.13405 9.88448 4.06399 9.90662 4.00343 9.94588C3.94287 9.98514 3.89406 10.04 3.86217 10.1048L2.44217 13.1678C2.40817 13.2308 2.38017 13.2778 2.30617 13.2778C2.23117 13.2778 2.20117 13.2308 2.16617 13.1678L0.746172 10.1108C0.724646 10.0629 0.693431 10.02 0.654496 9.98479C0.615561 9.94957 0.56975 9.9228 0.519953 9.90617C0.470157 9.88954 0.417454 9.88341 0.365169 9.88817C0.312885 9.89292 0.262152 9.90846 0.216172 9.9338C0.121682 9.98778 0.0513036 10.0757 0.0193521 10.1798C-0.0125993 10.2838 -0.00372423 10.3961 0.0441722 10.4938L1.43417 13.3218L1.59417 13.6418C1.65785 13.7775 1.75836 13.8925 1.88424 13.9738C2.01012 14.0552 2.15632 14.0995 2.30617 14.1018C2.45575 14.1 2.60176 14.0558 2.72726 13.9744C2.85275 13.893 2.95258 13.7777 3.01517 13.6418L3.17517 13.3218L4.56017 10.4878C4.60981 10.391 4.62025 10.2788 4.58934 10.1745C4.55843 10.0703 4.48853 9.9819 4.39417 9.9278C4.3365 9.89667 4.27169 9.88116 4.20617 9.8828V9.8818ZM15.5682 9.8818C15.3829 9.88111 15.2037 9.94794 15.0642 10.0698C14.9768 10.1441 14.9062 10.2361 14.8572 10.3398L13.2672 13.4768C13.2672 13.4818 13.2602 13.4828 13.2602 13.4868V13.4938C13.225 13.5634 13.2092 13.6411 13.2145 13.7189C13.2198 13.7967 13.2459 13.8716 13.2902 13.9358C13.2902 13.9408 13.2952 13.9418 13.2952 13.9458C13.2952 13.9528 13.3012 13.9508 13.3012 13.9558C13.3599 14.0338 13.4469 14.0855 13.5434 14.0999C13.6399 14.1143 13.7383 14.0902 13.8172 14.0328C13.8172 14.0328 13.8222 14.0328 13.8222 14.0268C13.8311 14.0226 13.8392 14.0168 13.8462 14.0098L13.8612 13.9918L13.8672 13.9858C13.8969 13.955 13.9225 13.9203 13.9432 13.8828L14.0002 13.7578L14.3322 13.0578C14.3382 13.0408 14.3602 13.0308 14.3772 13.0308H15.8612C16.0562 13.0308 16.2152 12.8638 16.2152 12.6518C16.2152 12.4458 16.0562 12.2748 15.8612 12.2748H14.7622C14.7567 12.2747 14.7514 12.2733 14.7466 12.2707C14.7419 12.2681 14.7378 12.2644 14.7349 12.2598C14.7319 12.2553 14.7301 12.2501 14.7296 12.2446C14.7292 12.2392 14.73 12.2338 14.7322 12.2288L14.8122 12.0568L15.4142 10.8498V10.8438C15.4142 10.8438 15.4142 10.8378 15.4202 10.8378C15.4312 10.8148 15.4602 10.7298 15.5182 10.7128C15.5522 10.7008 15.5812 10.7008 15.6042 10.7128C15.6672 10.7298 15.6882 10.8038 15.7172 10.8608L17.1722 13.8828C17.2149 13.968 17.2872 14.0347 17.3755 14.0706C17.4638 14.1065 17.5621 14.109 17.6522 14.0778C17.6522 14.0778 17.6582 14.0778 17.6582 14.0718L17.6932 14.0548C17.6992 14.0548 17.7002 14.0488 17.7052 14.0488C17.7052 14.0488 17.7112 14.0488 17.7112 14.0428C17.7172 14.0428 17.7172 14.0368 17.7232 14.0368C17.7292 14.0368 17.7332 14.0328 17.7332 14.0268C17.7392 14.0268 17.7392 14.0208 17.7442 14.0208C17.7502 14.0148 17.7562 14.0088 17.7622 14.0088L17.7792 13.9918L17.7852 13.9858C17.8544 13.9253 17.9011 13.8432 17.9178 13.7528C17.9345 13.6624 17.9202 13.569 17.8772 13.4878L16.2792 10.3338C16.2152 10.1997 16.1148 10.0864 15.9894 10.0068C15.864 9.9272 15.7187 9.88457 15.5702 9.8838L15.5682 9.8818ZM19.0762 9.8818C18.6862 9.8818 18.3672 10.2138 18.3672 10.6598V13.6778C18.3672 13.8608 18.4712 14.0318 18.6312 14.0838C18.8942 14.1698 19.1172 13.9408 19.1172 13.6718L19.0592 10.7338C19.0598 10.7281 19.0621 10.7226 19.0657 10.7181C19.0693 10.7136 19.0742 10.7103 19.0797 10.7085C19.0852 10.7067 19.0911 10.7065 19.0966 10.708C19.1022 10.7095 19.1073 10.7125 19.1112 10.7168L20.5532 13.6468C20.6902 13.9268 20.9202 14.0958 21.1782 14.0958C21.4352 14.0958 21.6682 13.9288 21.8012 13.6478L23.2502 10.7128C23.2602 10.6838 23.3002 10.6938 23.3002 10.7288L23.2442 13.6838C23.2442 13.9178 23.4212 14.1068 23.6332 14.0958C23.8392 14.0898 24.0002 13.8888 24.0002 13.6658V10.6598C24.0102 10.2078 23.6902 9.8898 23.3002 9.8828C23.1718 9.88458 23.0464 9.92248 22.9386 9.99216C22.8307 10.0618 22.7446 10.1605 22.6902 10.2768C22.3292 11.0158 21.2642 13.2068 21.2642 13.2128C21.2582 13.2228 21.2342 13.2768 21.1892 13.2768C21.1492 13.2768 21.1212 13.2298 21.1152 13.2128C20.7652 12.4858 20.0682 11.0488 19.7072 10.3048C19.5642 10.0178 19.3272 9.8828 19.0772 9.8828L19.0762 9.8818ZM6.62617 10.5288C7.32317 10.5288 7.76617 11.0558 7.83417 11.6738C7.83417 11.6968 7.82217 11.7188 7.79917 11.7188H5.47017C5.44717 11.7128 5.43717 11.6968 5.43717 11.6738C5.51117 11.0668 5.92617 10.5288 6.62617 10.5288ZM11.0962 10.5288H11.0982C11.7952 10.5298 12.2362 11.0558 12.3052 11.6738C12.3052 11.6968 12.2922 11.7188 12.2702 11.7188H9.94017C9.91717 11.7128 9.90017 11.6968 9.90617 11.6738C9.98117 11.0678 10.3992 10.5298 11.0962 10.5288Z" fill="white"/>
</g>
<defs>
<clipPath id="clip0_28_4858">
<rect width="24" height="24" fill="white"/>
</clipPath>
</defs>
</svg>
