<svg width="692" height="146" viewBox="0 0 692 146" fill="none" xmlns="http://www.w3.org/2000/svg">
<g clip-path="url(#clip0_32_4900)">
<path fill-rule="evenodd" clip-rule="evenodd" d="M33.995 7.09896H0.458496L51.4689 84.4323L48.6304 139.922H79.6512L82.8179 84.1042L82.7502 83.9896L139.511 6.55208H106.083L68.2241 60.3229L68.0731 60.0781L33.995 7.09896ZM510.724 39.1042H479.099L473.63 138.891H505.417L509.354 68.375C546.495 50.2448 545.182 76.6771 545.182 76.6771L542.209 138.891H573.584L577.953 73.401C577.953 73.401 581.448 39.5417 552.61 36.7031C523.771 33.8594 510.229 50.4635 510.229 50.4635L510.724 39.1042ZM423.453 0H455.688L454.307 24.6875H422.12L423.453 0ZM453.511 38.9948L447.927 139.156H415.927L421.344 38.9948H453.511ZM596.636 2.625H624.287L620.818 73.3073L661.401 33.8594H691.11L648.427 76.026L680.625 138.281H652.005L629.906 91.151L619.386 102.552L617.63 138.281H590.177L596.636 2.625ZM365.927 0H398.162L390.406 139.156H358.401L365.927 0ZM323.229 38.0104L322.386 50.3125C315.964 41.5521 303.703 32.4219 281.068 35.8281C240.432 41.9427 226.453 85.8542 234.974 111.193C243.495 136.536 267.307 145.927 285 144.62C302.146 143.349 310.677 139 316.953 129.391L316.24 139.813H339.834L347.479 38.1146L323.229 38.0104ZM288.62 59.6406C305.026 59.6406 317.521 73.2865 316.521 90.1146C315.521 106.943 301.406 120.589 285 120.589C268.594 120.589 256.099 106.943 257.099 90.1146C258.099 73.2865 272.214 59.6406 288.62 59.6406ZM166.011 30.1458C197.797 30.1458 223.573 55.9271 223.573 87.7083C223.573 91.7135 223.162 95.625 222.38 99.3958H199.172L199.245 99.1823H133.255C137.745 113.115 150.823 123.198 166.25 123.198C175.13 123.198 183.229 119.859 189.365 114.365H217.037C207.422 132.734 188.177 145.276 166.011 145.276C134.224 145.276 108.448 119.495 108.448 87.7083C108.448 55.9271 134.224 30.1458 166.011 30.1458ZM132.302 81.4844H200.198C196.938 65.724 182.974 53.8698 166.25 53.8698C149.521 53.8698 135.563 65.724 132.302 81.4844Z" fill="white"/>
</g>
<defs>
<clipPath id="clip0_32_4900">
<rect width="692" height="145.333" fill="white"/>
</clipPath>
</defs>
</svg>
