<svg width="707" height="210" viewBox="0 0 707 210" fill="none" xmlns="http://www.w3.org/2000/svg">
<g clip-path="url(#clip0_32_4885)">
<path fill-rule="evenodd" clip-rule="evenodd" d="M369.974 85.3224C369.572 90.1503 367.4 100.349 367.4 102.607L379.397 98.0554C387.835 95.2293 416.681 90.1196 416.681 103.343C416.681 110.026 407.501 112.794 402.417 114.087C388.585 117.607 367.121 121.229 360.162 135.088C353.749 147.86 359.168 163.296 373.598 168.124C376.185 168.989 378.315 169.231 381.578 169.705C387.318 170.538 398.088 169.815 403.864 168.861C405.426 168.603 406.813 168.187 408.221 168.07C408.89 165.204 409.619 162.149 410.348 159.531C411.174 156.561 412.342 154.358 413.002 151.521C409.639 153.135 398.12 155.934 393.878 155.934C389.411 155.934 384.616 156.137 380.922 153.812C376.615 151.102 376.593 148.486 376.593 144.533C376.593 132.016 407.617 129.761 416.312 123.938C416.312 126.283 415.923 127.009 415.936 129.447L413.37 168.438C415.082 168.438 416.826 168.474 418.533 168.453C420.61 168.427 421.085 168.069 423.289 168.055C426.791 168.032 429.694 168.438 433.597 168.438L434.712 134.615C435.018 123.914 436.171 113.869 436.171 102.975C436.171 83.3297 416.169 80.5417 400.13 80.5417C388.721 80.5417 379.25 83.1608 369.974 85.3224Z" fill="white"/>
<path fill-rule="evenodd" clip-rule="evenodd" d="M576.66 85.3224C576.66 91.0847 574.125 100.812 574.086 102.607C580.884 99.3451 596.036 94.8842 603.507 94.8842C610.573 94.8842 623.366 93.9726 623.366 103.711C623.366 115.978 593.603 114.197 576.678 125.059C570.163 129.24 564.523 135.966 564.523 144.165C564.523 150.17 564.676 152.547 567.585 158.021C574.969 171.918 597.032 171.419 610.654 168.965C612.296 168.669 613.771 168.195 615.275 168.07C615.379 163.414 618.733 155.988 619.688 151.888C618.266 152.007 616.848 152.654 615.353 153.069C604.8 156 607.091 155.934 595.416 155.934C588.861 155.934 583.28 152.414 583.28 145.636C583.28 140.788 586.31 138.458 589.16 136.439C592.139 134.328 596.021 133.126 599.967 131.799C604.216 130.37 614.431 127.866 617.593 126.623C619.348 125.933 621.517 124.651 622.999 124.305C622.999 137.51 621.204 154.659 620.056 168.437H640.284L640.65 148.208C640.738 146.573 641.011 146.444 641.034 144.547C641.05 143.209 640.967 141.806 641.007 140.475C641.062 138.621 641.38 138.44 641.402 136.456C641.529 124.99 642.858 114.852 642.858 102.239C642.858 78.1784 608.962 79.0608 591.471 82.1115C589.178 82.5117 586.65 83.0579 584.159 83.6266C581.928 84.1353 578.577 85.163 576.66 85.3224Z" fill="white"/>
<path fill-rule="evenodd" clip-rule="evenodd" d="M225.81 170.276H248.243C248.243 165.583 248.101 157.367 248.558 153.305C248.715 151.9 248.609 150.025 248.603 148.57C248.593 146.316 248.933 145.726 248.99 143.809C249.038 142.235 248.919 140.578 248.967 139.004C249.083 135.108 249.747 128.934 249.712 124.304C249.664 117.825 251.286 117.167 255.746 110.478L279.944 74.3622C281.326 72.2804 282.59 70.5785 283.99 68.4783C285.669 65.9599 295.706 51.5075 296.053 50.0164C294.092 50.0164 292.128 50.0242 290.167 50.0141C287.587 50.001 286.496 50.3713 284.3 50.399C279.913 50.4544 276.693 50.0164 272.148 50.0164L254.791 77.5271C254.05 78.7105 253.602 79.4997 252.805 80.689C251.415 82.7597 250.203 84.6495 248.907 86.7212C247.561 88.8731 246.336 90.6161 245.051 92.795C244.325 94.0259 243.748 94.7537 243.022 95.9157C242.317 97.047 241.892 98.1937 240.888 98.9297L227.632 74.6733C225.348 70.723 223.216 66.7562 220.911 62.6382L214.777 50.016C210.22 50.016 206.981 50.4053 202.627 50.3967C200.26 50.3922 199.338 49.9969 196.761 50.0111C194.675 50.0231 192.589 50.016 190.503 50.016C195.614 59.6732 203.135 72.0363 208.779 82.1255L228.933 117.505C229.392 118.866 229.178 120.957 229.131 122.479L227.287 151.16C227.246 152.871 227.006 153.888 226.905 155.927C226.833 157.398 226.66 158.861 226.521 160.69C226.284 163.806 225.81 166.736 225.81 170.276Z" fill="white"/>
<path fill-rule="evenodd" clip-rule="evenodd" d="M315.177 94.8844C326.087 94.8844 332.83 101.667 332.83 112.169H292.375C293.321 108.11 294.998 105.38 297.407 102.49C298.69 100.951 298.578 101.205 300 99.9342C303.204 97.0703 309.216 94.8844 315.177 94.8844ZM271.045 126.88C271.045 146.698 280.69 163.456 299.578 168.223C313.272 171.679 326.485 169.996 339.817 166.967C344.034 166.009 342.108 167.935 344.329 156.032C344.701 154.031 345.702 150.972 345.702 148.578C338.695 150.21 329.677 154.83 319.59 154.83C310.306 154.83 303.6 154.244 296.875 147.02C293.056 142.917 290.537 135.152 290.537 127.248C290.537 125.98 290.808 125.824 290.904 124.673H350.85C354.588 108.628 348.089 89.2861 331.778 83.4317C315.022 77.4179 294.094 80.4068 282.356 93.6916C275.978 100.911 271.045 113.349 271.045 126.88Z" fill="white"/>
<path fill-rule="evenodd" clip-rule="evenodd" d="M451.986 101.504C451.986 108.567 453.27 112.139 457.452 117.369C460.817 121.576 467.374 127.065 472.054 130.718L482.234 139.293C486.189 143.786 486.321 149.399 481.035 152.619C472.703 157.693 454.466 151.665 445.734 147.475C445.734 151.161 447.138 159.767 447.199 163.296C447.261 166.955 446.477 166.06 453.752 167.776C467.599 171.04 488.751 172.508 499.151 160.804C503.658 155.733 506.158 147.315 503.009 139.114C500.501 132.584 495.069 127.498 490.121 123.316C485.113 119.084 479.035 114.798 474.504 110.246C468.755 104.469 469.988 97.0837 482.503 96.3421C495.941 95.5455 502.116 100.84 505.681 101.136C505.301 96.5847 504.209 87.1001 504.209 83.1153C502.688 82.9888 501.009 82.519 499.218 82.2221C487.337 80.2526 471.276 78.6083 461.12 85.6288C456.94 88.5182 451.986 94.5702 451.986 101.504Z" fill="white"/>
<path fill-rule="evenodd" clip-rule="evenodd" d="M27.9497 184.987C27.9497 192.062 29.6609 209.26 38.6151 209.26C42.3041 209.26 44.7977 207.701 47.1716 205.312C56.8007 195.617 62.6558 178.674 65.2494 165.65C67.4518 154.589 69.1264 140.341 65.6066 129.678C61.0378 115.836 51.037 119.215 43.4691 130.631C34.1253 144.726 27.9497 167.719 27.9497 184.987Z" fill="white"/>
<path fill-rule="evenodd" clip-rule="evenodd" d="M559.375 152.256C554.184 152.256 535.469 160.609 535.469 147.843L535.457 140.107C535.46 137.831 535.85 137.257 535.85 134.983L536.994 108.913C537.186 107.205 537.309 105.949 537.309 103.71H559.375C559.375 98.4602 560.111 92.2981 560.111 88.9992H538.044L538.399 76.115C538.401 74.0982 538.744 73.6737 538.78 72.0823C536.811 72.0823 531.778 73.5011 529.222 73.9249L522.045 75.2071C520.401 75.4725 520.51 75.0806 520.093 76.1969C520.061 76.2846 519.673 86.4119 519.668 87.1727C519.633 92.136 518.371 101.769 518.196 108.502L515.663 151.835C516.043 155.299 516.508 158.296 517.931 160.967C524.006 172.364 541.691 170.691 552.543 168.592C556.495 167.828 555.95 168.825 557.117 161.765C557.474 159.6 558.658 153.749 559.375 152.256Z" fill="white"/>
<path fill-rule="evenodd" clip-rule="evenodd" d="M101.136 84.587C101.136 89.4223 102.16 91.8048 106.572 94.5972C111.021 97.4135 116.006 97.4585 121.363 97.4585C137.666 97.4585 152.806 88.8839 164.079 79.8606C168.312 76.4725 174.322 68.1215 174.322 62.5206C174.322 53.6039 164.736 50.0164 155.566 50.0164C137.388 50.0164 117.237 60.1887 106.397 72.9306C105.554 73.922 104.714 75.1095 104.094 76.1431C102.824 78.256 101.136 81.2839 101.136 84.587Z" fill="white"/>
<path fill-rule="evenodd" clip-rule="evenodd" d="M0 95.2519C0 101.736 4.40705 105.043 10.0308 107.287C25.5349 113.471 47.4361 109.458 61.4172 102.975C73.5011 97.3716 85.0907 83.9917 67.6759 75.3861C54.4937 68.8725 28.7267 72.5873 17.0382 78.4555C16.0514 78.9508 15.2368 79.2548 14.2877 79.7508C9.26447 82.374 0 88.4871 0 95.2519Z" fill="white"/>
<path fill-rule="evenodd" clip-rule="evenodd" d="M674.854 89.3675C675.577 88.0808 675.222 84.7235 675.222 83.1155H656.097L656.098 100.034C656.115 107.435 655.321 117.171 655.366 125.046C655.379 127.287 655.087 128.058 654.993 129.821C654.902 131.486 655.057 133.304 655.006 134.983C654.949 136.902 654.606 137.488 654.618 139.744C654.657 147.113 653.877 152.326 653.521 159.242C653.331 162.945 653.155 165.716 653.155 169.541C654.631 168.712 669.1 169.174 671.911 169.174C673.318 169.174 672.045 169.061 673.014 169.541C673.014 156.756 673.249 129.871 674.87 118.071C676.406 106.88 683.601 97.6418 694.757 98.4942C697.538 98.7065 698.497 98.7001 700.675 99.2205C702.427 99.6398 704.749 100.114 706.114 100.769C706.114 95.4146 705.378 89.2331 705.378 82.7479C703.845 82.6206 702.528 82.0535 700.821 81.7892C693.299 80.6234 685.343 82.0168 679.041 86.1996C676.216 88.0737 676.49 88.9306 674.854 89.3675Z" fill="white"/>
<path fill-rule="evenodd" clip-rule="evenodd" d="M64.3588 34.9378C64.3588 44.5112 66.9647 54.9545 73.6416 61.6965C79.4098 67.5205 87.5512 67.151 93.1428 61.5146C102.503 52.0779 104.078 40.711 104.078 27.9503C104.078 19.9557 100.493 8.80437 94.6084 3.58494C92.2578 1.49934 89.8334 0.364634 87.4374 0H83.9311C78.1134 0.871528 72.7824 5.95207 69.5033 12.5001C66.6761 18.1452 64.3588 26.4708 64.3588 34.9378Z" fill="white"/>
<path fill-rule="evenodd" clip-rule="evenodd" d="M111.801 170.276C124.003 170.276 132.764 155.823 132.764 143.43C132.764 134.664 131.595 128.763 126.879 122.1C121.237 114.13 111.49 110.306 102.601 116.209C94.5031 121.585 90.7662 131.96 90.4888 141.612C90.4734 142.129 90.8373 146.45 90.9784 147.336C91.735 152.081 93.52 157.195 96.1964 160.874C97.4078 162.539 97.5767 162.866 99.0202 164.302C100.357 165.63 100.727 166.092 102.381 167.193C104.613 168.679 108.302 170.276 111.801 170.276Z" fill="white"/>
</g>
<defs>
<clipPath id="clip0_32_4885">
<rect width="706.114" height="209.26" fill="white"/>
</clipPath>
</defs>
</svg>
