<svg width="396" height="227" viewBox="0 0 396 227" fill="none" xmlns="http://www.w3.org/2000/svg">
<path d="M85.3335 92.6667V98.6667H100.667C109.067 98.6667 116 99.0667 116 99.6C116 100.133 109.067 107.467 100.667 116C92.2668 124.533 85.3335 132.267 85.3335 133.2C85.3335 134.133 86.0002 136 86.6668 137.467C88.0002 139.867 90.0002 140 132 140H176V133.333V126.533L180 131.2C187.467 139.6 189.333 140 226.667 140C253.6 140 260.933 139.6 264 138C267.333 136.267 268.267 136.267 272.533 138C275.067 139.067 280.133 140 283.6 140C296.4 139.867 306.133 132.267 309.467 119.6C315.067 98.8 292.933 80.1333 272.533 88.6667C268.267 90.4 267.333 90.4 264 88.6667C259.467 86.4 248.533 86 243.067 88.1333C238.4 89.8667 231.067 96.6667 228.4 101.867C226.133 106.4 225.733 119.733 227.867 123.733C228.667 125.2 229.333 126.933 229.333 127.333C229.333 127.867 221.6 128 212 127.733L194.667 127.333L190.4 123.067C184.267 116.933 184.267 109.733 190.4 103.6L194.667 99.3333L210.667 98.8L226.667 98.4V92.5333V86.6667H204.667C184.667 86.6667 182.667 86.9333 182.667 88.9333C182.533 94.4 175.067 100 168 100C163.333 100 154.667 92.6667 154.667 88.8C154.667 87.0667 153.2 86.6667 148 86.6667H141.467L142.133 90.9333C143.733 99.3333 151.067 108.4 158.267 110.8C162.533 112.133 162.667 112.4 162.667 119.467V126.667H135.733H108.667L124.4 110.933C147.6 87.7333 147.067 86.6667 111.067 86.6667H85.3335V92.6667ZM263.333 104.133C275.067 115.6 258.8 134.133 244.933 124.933C242.933 123.733 240.8 120.4 239.867 117.467C238.667 113.2 238.667 111.6 240.667 107.6C245.067 98.2667 255.6 96.6667 263.333 104.133ZM288.533 100.533C294.267 102.933 297.333 107.333 297.333 113.333C297.333 119.333 294.267 123.733 288.533 126.133C282.8 128.533 276.667 127.333 278.267 124.133C279.6 121.333 279.6 105.333 278.267 102.4C277.467 100.8 277.867 100 279.6 99.6C283.6 98.5333 283.867 98.5333 288.533 100.533Z" fill="white"/>
</svg>
